<svg width="73" height="78" viewBox="0 0 73 78" fill="none" xmlns="http://www.w3.org/2000/svg">
<path d="M55.3769 25.0032C55.3256 25.5664 55.2744 25.9247 55.2744 26.2831C55.2744 33.2966 55.2744 40.3102 55.2744 47.3749C55.2744 51.2144 55.2744 51.1632 59.0658 51.112C59.988 51.112 60.3466 50.8561 60.2954 49.8834C60.2442 47.4261 60.2954 44.9688 60.2954 42.5115C60.2954 41.3852 60.2954 40.259 60.2954 39.0815C62.5497 39.0815 64.5991 39.0815 66.8534 39.0815C66.8534 43.0746 66.8534 46.9653 66.8534 50.9585C68.6467 50.9585 70.2349 50.9585 71.8745 50.9585C71.8745 42.3067 71.8745 33.7574 71.8745 25.208C67.3146 24.2353 66.8534 24.5937 66.8534 28.9451C66.8534 29.3035 66.8534 29.6107 66.8534 29.969C66.8534 31.6072 66.8534 33.2966 66.8534 34.986C64.5991 34.986 62.5497 34.986 60.3979 34.986C60.3466 34.3717 60.3466 33.8597 60.3466 33.3478C60.3466 30.9417 60.3979 28.5356 60.2954 26.1295C60.2954 25.7711 59.8855 25.0544 59.5781 25.0544C58.1948 24.9008 56.8114 25.0032 55.3769 25.0032ZM72.5917 21.3685C72.0281 20.4982 71.567 19.8839 71.2084 19.1671C70.8497 18.5016 70.3886 18.2968 69.6713 18.604C68.8004 18.9624 67.8781 19.3207 66.9559 19.5767C66.3923 19.7303 65.7263 19.5767 65.1627 19.5767C65.3676 19.0136 65.5213 18.3992 65.88 17.8873C66.5973 16.8634 67.4683 15.9931 68.3905 14.8669C66.8534 13.2287 65.3676 11.6929 63.8818 10.1058C62.4473 11.0785 61.2176 12 59.9368 12.8191C59.6806 12.9727 59.1682 13.0239 58.9121 12.8703C58.7071 12.7167 58.6559 12.2048 58.7584 11.8976C59.2195 10.7202 59.6806 9.59392 60.2442 8.46766C60.6028 7.80214 60.5003 7.44377 59.8855 7.08542C58.5022 6.26632 57.1701 5.39602 55.7867 4.67931C55.4281 4.52573 54.6596 4.67931 54.4034 4.93528C53.5324 5.75438 52.8664 6.77826 52.0466 7.69975C51.8417 7.95572 51.2781 8.21168 51.0732 8.10929C50.817 8.00691 50.6121 7.44378 50.6121 7.13662C50.7145 5.652 50.9707 4.21857 51.1756 2.47798C49.2287 1.96605 47.3843 1.40292 45.4374 0.993368C45.1812 0.942174 44.6176 1.35172 44.4127 1.71008C43.8491 2.83634 43.388 4.0138 42.8756 5.08887C42.7219 5.34483 42.312 5.652 42.0559 5.652C41.7997 5.60081 41.4923 5.19126 41.441 4.88409C41.2361 3.70664 41.1336 2.47798 40.8775 1.35171C40.775 0.942165 40.2626 0.379037 39.904 0.379037C38.2645 0.276649 36.625 0.276649 35.0367 0.379037C34.6781 0.379037 34.1657 0.993362 34.0632 1.40291C33.7558 2.58037 33.7046 3.75782 33.4484 4.93528C33.3972 5.24244 33.0898 5.65199 32.8336 5.70318C32.5774 5.75438 32.1676 5.44723 32.0139 5.14006C31.4503 4.0138 31.0404 2.83634 30.4256 1.76127C30.2206 1.40292 29.5546 1.04455 29.196 1.09575C27.7614 1.40291 26.3268 1.86366 24.8922 2.22201C24.0725 2.42679 23.7138 2.83634 23.8676 3.75783C24.0725 4.83289 24.2262 5.95915 24.2774 7.03422C24.2774 7.39258 24.0213 7.80214 23.8676 8.21169C23.5089 8.05811 23.099 7.95572 22.8429 7.69975C21.8694 6.57349 20.9472 5.44721 19.9225 4.16737C17.9756 5.34483 16.1823 6.47109 14.2867 7.59736C14.9527 9.03078 15.5163 10.2594 16.0287 11.5905C16.1824 12 16.0286 12.512 15.9774 12.9727C15.5675 12.8703 15.0552 12.8703 14.6965 12.6143C13.5182 11.8464 12.3397 11.0273 11.0589 10.1058C9.67555 11.5905 8.39468 12.9215 7.16504 14.3037C6.96011 14.5597 6.96011 15.3276 7.16504 15.6348C7.8311 16.6075 8.65086 17.4266 9.31691 18.348C9.57308 18.6552 9.57307 19.1671 9.72678 19.5767C9.26567 19.6279 8.75333 19.7303 8.29221 19.6279C7.26752 19.3719 6.24283 19.0136 5.26937 18.604C4.44962 18.2457 3.93727 18.3992 3.68109 19.2183C3.37369 20.0886 2.75887 20.2934 1.88788 20.2934C1.52924 20.2934 1.11935 20.703 0.709473 20.9077C0.760707 21.0613 0.863189 21.2149 0.914424 21.3685C24.6361 21.3685 48.409 21.3685 72.5917 21.3685ZM34.012 51.0608C35.7028 51.0608 37.1373 51.112 38.5719 51.0096C38.9306 50.9584 39.4429 50.4977 39.5454 50.0882C40.0065 48.5012 40.3651 46.9141 40.6725 45.3271C40.8262 44.508 41.1849 44.2009 42.0046 44.2009C43.183 44.2521 44.3102 44.2521 45.4886 44.2009C46.3083 44.1497 46.7182 44.4568 46.8207 45.2759C47.0256 46.9141 47.3843 48.5012 47.7429 50.0882C47.7941 50.4465 48.1528 50.9585 48.409 50.9585C49.9972 51.0608 51.5343 51.0096 53.225 51.0096C53.1738 50.6001 53.1226 50.4465 53.1226 50.2417C51.5343 43.0746 49.8948 35.9075 48.3065 28.6892C47.4867 24.9008 47.538 24.9008 43.6954 24.9008C40.8262 24.9008 40.775 24.9008 40.0577 27.6653C38.0083 35.4468 36.0614 43.1258 34.012 51.0608ZM16.6435 33.399C17.3095 28.4332 14.799 25.0544 10.2391 24.5937C4.55208 24.0306 1.06812 26.6414 0.863186 31.7608C0.709482 35.7027 0.709479 39.6446 0.811948 43.5865C0.914418 49.269 3.98849 51.9311 9.67554 51.624C15.0552 51.3168 17.412 47.0677 16.5922 41.9484C15.0552 41.9484 13.4669 41.9484 12.0323 41.9484C11.8274 43.3306 11.7249 44.5592 11.4688 45.7879C11.1613 47.1189 10.1367 47.682 8.75332 47.682C7.42122 47.682 6.49899 47.0677 6.14035 45.8391C5.88418 45.02 5.83294 44.1497 5.83294 43.2794C5.78171 39.747 5.78171 36.2659 5.83294 32.7335C5.83294 31.9144 5.93542 31.0953 6.19159 30.3274C6.60147 28.8939 7.72864 28.4844 9.11197 28.5356C10.4953 28.5868 11.3151 29.2523 11.5712 30.5321C11.7762 31.4536 11.8786 32.4263 12.0323 33.4502C13.5181 33.399 15.0552 33.399 16.6435 33.399ZM29.0935 51.0608C29.0935 43.5865 29.0935 36.3682 29.0935 28.9451C31.2454 28.9451 33.1923 28.9451 35.1392 28.9451C35.1392 27.5629 35.1392 26.3343 35.1392 25.1056C29.3497 25.1056 23.7139 25.1056 18.0268 25.1056C18.0268 26.4367 18.0268 27.6653 18.0268 29.0475C20.0762 29.0475 22.0231 29.0475 24.0725 29.0475C24.0725 29.7642 24.0725 30.2762 24.0725 30.7881C24.0725 37.0337 24.1237 43.2794 24.0725 49.5762C24.0725 50.8049 24.4824 51.2144 25.6608 51.112C26.6855 51.0096 27.7102 51.0608 29.0935 51.0608ZM45.8472 72.4086C47.0769 71.9991 47.6917 72.3574 48.204 73.2277C49.6898 75.7362 49.7411 75.7362 52.4565 74.61C52.9688 74.4052 53.43 74.2004 53.8911 73.9956C54.5059 73.6885 55.4281 73.4837 55.5818 73.0229C55.8892 72.0503 56.504 72.255 57.1189 72.255C61.5763 72.255 66.0849 72.255 70.5423 72.255C70.9522 72.255 71.3621 72.3062 71.6695 72.2039C71.9257 72.1527 72.1306 71.8455 72.2331 71.5895C72.2843 71.4871 71.9257 71.18 71.7207 71.1288C71.4646 71.0264 71.1572 71.0776 70.8498 71.0776C52.6102 71.0776 34.3707 71.0776 16.0799 71.0776C11.2638 71.0776 6.44777 71.0776 1.63171 71.1288C1.3243 71.1288 1.01688 71.4871 0.709473 71.6919C1.01688 71.8967 1.27306 72.1527 1.58047 72.3062C1.88788 72.4086 2.24652 72.3062 2.60516 72.3062C7.52369 72.3062 12.4422 72.3062 17.3607 72.3062C17.7706 72.3062 18.283 72.255 18.6416 72.4598C19.8712 73.1765 21.0496 74.0468 22.3305 74.6611C24.6873 75.7874 24.7898 75.7362 26.1219 73.4837C26.7367 72.4598 27.3515 71.9991 28.6324 72.511C28.6324 73.842 28.6324 75.2243 28.6324 76.7089C30.3231 76.9649 31.9114 77.1696 33.4997 77.4768C34.8318 77.7328 35.5491 77.4256 35.7028 75.941C35.8052 75.1219 36.1126 74.2516 36.4713 73.4837C36.625 73.1253 36.9836 72.8182 37.291 72.4598C37.5472 72.8182 37.9059 73.1253 38.0083 73.5349C39.3404 77.9375 39.2892 77.9376 43.8491 77.1696C43.9515 77.1696 44.054 77.1184 44.1565 77.1184C45.4886 77.0672 46.1546 76.5041 45.9497 75.0195C45.7448 74.098 45.8472 73.2277 45.8472 72.4086Z" fill="white"/>
<path d="M55.3769 25.0031C56.8115 25.0031 58.1948 24.9519 59.5781 25.0543C59.8343 25.0543 60.2954 25.771 60.2954 26.1294C60.3467 28.5355 60.3467 30.9416 60.3467 33.3477C60.3467 33.8596 60.3979 34.3716 60.3979 34.9859C62.5497 34.9859 64.5991 34.9859 66.8535 34.9859C66.8535 33.2965 66.8535 31.6583 66.8535 29.9689C66.8535 29.6106 66.8535 29.3034 66.8535 28.945C66.8535 24.5936 67.3146 24.2352 71.8745 25.2079C71.8745 33.7572 71.8745 42.2554 71.8745 50.9583C70.2862 50.9583 68.6467 50.9583 66.8535 50.9583C66.8535 47.0164 66.8535 43.0745 66.8535 39.0814C64.5991 39.0814 62.601 39.0814 60.2954 39.0814C60.2954 40.2588 60.2954 41.3851 60.2954 42.5114C60.2954 44.9687 60.2442 47.426 60.2954 49.8833C60.2954 50.8559 59.988 51.1119 59.0658 51.1119C55.2744 51.2143 55.2744 51.2143 55.2744 47.3748C55.2744 40.3612 55.2744 33.3477 55.2744 26.283C55.2744 25.9246 55.3257 25.5662 55.3769 25.0031Z" fill="white"/>
<path d="M72.5917 21.3685C48.4602 21.3685 24.636 21.3685 0.863139 21.3685C0.811904 21.2149 0.709438 21.0613 0.658203 20.9077C1.06808 20.7029 1.42672 20.2934 1.83659 20.2934C2.70758 20.2934 3.3224 20.0886 3.62981 19.2183C3.93722 18.4504 4.44957 18.2968 5.21809 18.604C6.19154 19.0136 7.21624 19.3719 8.24093 19.6279C8.65081 19.7303 9.16315 19.5767 9.67549 19.5767C9.52179 19.1671 9.5218 18.7064 9.26562 18.348C8.59957 17.4266 7.77981 16.6075 7.11376 15.6348C6.90882 15.3276 6.85759 14.5597 7.11376 14.3037C8.34339 12.8703 9.62426 11.5393 11.0076 10.1058C12.2885 10.9761 13.4156 11.8464 14.6453 12.6143C15.0039 12.8191 15.465 12.8191 15.9261 12.9727C15.9261 12.512 16.1311 11.9488 15.9774 11.5905C15.465 10.3106 14.8502 9.03078 14.2354 7.59735C16.1311 6.47109 17.9243 5.34483 19.8712 4.16737C20.8959 5.39602 21.8181 6.57349 22.7916 7.69975C23.0477 7.95572 23.4576 8.0581 23.8163 8.21169C23.97 7.80214 24.2262 7.44377 24.2262 7.03422C24.1749 5.90796 24.0212 4.83289 23.8163 3.75783C23.6626 2.83634 24.0212 2.42679 24.841 2.22201C26.2755 1.86366 27.7101 1.35171 29.1447 1.09575C29.5033 1.04455 30.2206 1.40292 30.3743 1.76127C30.9891 2.83634 31.399 4.06499 31.9626 5.14006C32.1163 5.39603 32.5262 5.70318 32.7823 5.70318C33.0385 5.65199 33.3459 5.24244 33.3972 4.93527C33.6533 3.75782 33.7046 2.52917 34.012 1.40291C34.1144 0.993361 34.6268 0.43023 34.9854 0.379037C36.6249 0.276649 38.2645 0.276649 39.8527 0.379037C40.2114 0.379037 40.7237 0.993358 40.8262 1.35171C41.0824 2.52917 41.1848 3.70664 41.3898 4.88409C41.441 5.19126 41.7996 5.60081 42.0046 5.652C42.2607 5.70319 42.7219 5.39603 42.8243 5.08887C43.3879 3.9626 43.7978 2.78514 44.3614 1.71008C44.5151 1.40291 45.0787 0.942174 45.3861 0.993368C47.2818 1.40292 49.1774 1.96605 51.1244 2.47798C50.9194 4.16738 50.7145 5.652 50.5608 7.13661C50.5095 7.44378 50.7657 8.0069 51.0219 8.10929C51.2268 8.21168 51.7904 7.95572 51.9953 7.69975C52.8151 6.82946 53.4811 5.80557 54.3521 4.93527C54.6595 4.62811 55.4281 4.47453 55.7355 4.67931C57.17 5.39602 58.4509 6.26632 59.8343 7.08542C60.4491 7.44377 60.5515 7.85333 60.1929 8.46765C59.6293 9.59392 59.1682 10.7202 58.7071 11.8976C58.6046 12.1536 58.6558 12.7167 58.8608 12.8703C59.0657 13.0239 59.6293 13.0239 59.8855 12.8191C61.1663 12 62.4472 11.0785 63.8306 10.1058C65.3164 11.6928 66.8022 13.2287 68.3392 14.8669C67.417 15.9419 66.5972 16.8634 65.8287 17.8873C65.4701 18.348 65.3676 19.0136 65.1114 19.5767C65.7262 19.5767 66.341 19.6791 66.9046 19.5767C67.8269 19.3719 68.7491 19.0136 69.6201 18.604C70.3373 18.2968 70.7985 18.5016 71.1571 19.1671C71.567 19.8839 72.0281 20.4982 72.5917 21.3685ZM11.0588 11.744C10.0341 12.8703 9.00945 13.9454 7.98476 15.0204C8.85574 16.0955 9.6755 16.9658 10.3416 17.9385C10.7514 18.5528 11.0076 19.3719 11.3662 20.2422C13.1595 20.2422 15.2601 20.2934 17.3607 20.191C17.873 20.191 18.4366 19.8838 18.8465 19.5255C29.5033 9.84987 44.9762 9.84989 55.7355 19.4743C56.0941 19.7815 56.504 20.1398 56.9139 20.191C59.2194 20.2422 61.4738 20.2422 63.6769 20.2422C63.062 17.5289 65.9824 16.8122 66.4948 14.7645C65.7775 13.9966 65.0089 13.2287 64.2917 12.3584C63.7793 11.744 63.3182 11.7952 62.7034 12.256C61.5762 13.1263 60.3466 13.8942 59.1682 14.7133C58.3484 14.0478 57.6312 13.4846 56.8626 12.8703C57.5799 11.1809 58.246 9.64511 59.0145 7.95572C57.9386 7.2902 57.0163 6.62468 55.9404 6.16394C55.5818 6.01036 54.8132 6.16392 54.5571 6.47109C53.7886 7.23899 53.0713 8.10929 52.4564 9.03077C51.5855 10.3106 50.8169 9.23555 49.946 9.03077C49.0237 8.826 49.0237 8.21167 49.1774 7.49496C49.3824 6.11273 49.5361 4.78169 49.741 3.39946C49.1774 3.19469 48.8188 3.04111 48.4089 2.93872C45.5398 2.01724 45.5398 2.01723 44.3614 4.67931C43.2342 7.13661 43.2342 7.13662 40.6212 6.67587C40.5188 6.67587 40.4675 6.57348 40.3651 6.52228C40.1089 4.88408 39.8527 3.24589 39.5966 1.5053C38.0595 1.5053 36.5737 1.5053 35.0879 1.5053C34.883 2.98992 34.5755 4.37215 34.5243 5.75438C34.4731 7.08541 33.4996 6.77826 32.7823 6.93184C32.1163 7.08542 31.399 7.29019 31.0404 6.26631C30.6817 5.19125 30.1694 4.11619 29.657 3.09231C29.5033 2.78515 28.9397 2.37559 28.6323 2.42679C27.4027 2.63156 26.2243 3.04111 24.9434 3.39946C25.1484 4.88408 25.1996 6.21512 25.507 7.54616C25.8144 8.826 24.8922 9.03079 24.0724 9.49153C23.2527 9.90108 22.6891 9.84987 22.1255 9.03077C21.357 7.9557 20.4348 6.93184 19.5638 5.85677C19.0514 6.16393 18.5903 6.36871 18.1292 6.62468C15.67 8.1093 15.67 8.10929 16.7971 10.669C17.9243 13.1775 17.9243 13.1775 15.67 14.7645C15.6187 14.7645 15.5675 14.7645 15.465 14.8157C14.0305 13.7918 12.5959 12.7679 11.0588 11.744ZM54.762 20.191C48.7676 14.9693 42.107 12.9215 34.5755 13.6382C28.8373 14.1501 22.228 17.5289 20.5373 20.191C31.8089 20.191 43.0805 20.191 54.762 20.191Z" fill="white"/>
<path d="M34.0117 51.0606C36.0611 43.1256 38.008 35.4465 40.0062 27.7675C40.7235 24.9518 40.7235 25.003 43.6438 25.003C47.4864 25.003 47.4352 25.003 48.255 28.7913C49.8432 35.9584 51.4827 43.1256 53.071 50.3439C53.1223 50.4975 53.1223 50.7022 53.1735 51.1118C51.534 51.1118 49.9457 51.163 48.3574 51.0606C48.1013 51.0606 47.7939 50.4975 47.6914 50.1903C47.3327 48.6033 47.0253 46.9651 46.7692 45.3781C46.6667 44.5078 46.2568 44.2518 45.4371 44.303C44.2587 44.3542 43.1315 44.3542 41.9531 44.303C41.1333 44.2518 40.7747 44.6102 40.621 45.4293C40.3136 47.0163 39.9549 48.6033 39.4938 50.1903C39.3914 50.5487 38.879 51.0606 38.5204 51.1118C37.137 51.1118 35.7025 51.0606 34.0117 51.0606ZM46.0006 40.3611C45.3346 36.5216 44.771 32.8868 44.1562 29.2009C44.0537 29.2009 43.9513 29.2009 43.8488 29.2009C43.1315 32.8868 42.4142 36.5728 41.6457 40.3611C43.0803 40.3611 44.4124 40.3611 46.0006 40.3611Z" fill="white"/>
<path d="M16.6435 33.3992C15.0552 33.3992 13.5181 33.3992 11.9811 33.3992C11.8274 32.3753 11.7249 31.4027 11.52 30.4812C11.2638 29.2013 10.4441 28.5358 9.06073 28.4846C7.67739 28.4334 6.55022 28.8941 6.14035 30.2764C5.93541 31.0443 5.83295 31.8634 5.78171 32.6825C5.73048 36.2149 5.73048 39.696 5.78171 43.2284C5.78171 44.0987 5.88417 44.969 6.08911 45.7881C6.44775 47.0167 7.36998 47.6311 8.70208 47.6311C10.0854 47.6311 11.0589 47.0679 11.4175 45.7369C11.7249 44.5082 11.7762 43.2796 11.9811 41.8974C13.4157 41.8974 15.004 41.8974 16.541 41.8974C17.3607 47.0167 15.004 51.2658 9.62431 51.573C3.93726 51.8801 0.863175 49.2181 0.760706 43.5356C0.709471 39.5936 0.65824 35.6517 0.811944 31.7098C1.01688 26.5904 4.50083 23.9796 10.1879 24.5427C14.799 25.0546 17.3095 28.4334 16.6435 33.3992Z" fill="white"/>
<path d="M29.0935 51.0606C27.7614 51.0606 26.6855 51.0094 25.6608 51.0606C24.4824 51.163 24.0725 50.7534 24.0725 49.5248C24.1238 43.2792 24.0725 37.0335 24.0725 30.7367C24.0725 30.2248 24.0725 29.7128 24.0725 28.9961C22.0232 28.9961 20.0762 28.9961 18.0269 28.9961C18.0269 27.6139 18.0269 26.3852 18.0269 25.0542C23.7139 25.0542 29.3497 25.0542 35.1392 25.0542C35.1392 26.2828 35.1392 27.5115 35.1392 28.8937C33.1923 28.8937 31.2454 28.8937 29.0935 28.8937C29.0935 36.368 29.0935 43.5863 29.0935 51.0606Z" fill="white"/>
<path d="M45.8471 72.4087C45.8471 73.2278 45.7447 74.1493 45.8471 74.9684C46.0521 76.4018 45.4373 77.0161 44.0539 77.0673C43.9515 77.0673 43.849 77.1185 43.7465 77.1185C39.2379 77.8864 39.2379 77.8352 37.9058 73.4838C37.8033 73.0742 37.4447 72.767 37.1885 72.4087C36.9323 72.767 36.5224 73.023 36.3687 73.4326C36.0613 74.2517 35.7027 75.0708 35.6002 75.8899C35.4465 77.3745 34.7292 77.6817 33.3971 77.4257C31.8089 77.1185 30.1693 76.9138 28.5298 76.6578C28.5298 75.122 28.5298 73.7909 28.5298 72.4599C27.3002 71.948 26.6342 72.4087 26.0193 73.4326C24.6872 75.6851 24.5848 75.7363 22.228 74.61C20.9471 73.9957 19.7687 73.1254 18.5391 72.4087C18.1804 72.2039 17.7193 72.2551 17.2582 72.2551C12.3397 72.2551 7.42114 72.2551 2.50261 72.2551C2.14396 72.2551 1.78532 72.3575 1.47791 72.2551C1.17051 72.1527 0.863107 71.8456 0.606934 71.6408C0.914342 71.436 1.22174 71.0777 1.52915 71.0777C6.34521 71.0265 11.1613 71.0265 15.9773 71.0265C34.2169 71.0265 52.4564 71.0265 70.7472 71.0265C71.0546 71.0265 71.362 70.9753 71.6182 71.0777C71.8231 71.1289 72.1818 71.4872 72.1305 71.5384C72.0281 71.7944 71.8231 72.1015 71.567 72.1527C71.2083 72.2551 70.7984 72.2039 70.4398 72.2039C65.9824 72.2039 61.4737 72.2039 57.0163 72.2039C56.4015 72.2039 55.7867 71.9992 55.4793 72.9718C55.3256 73.4326 54.4033 73.6885 53.7885 73.9445C53.3274 74.2005 52.8151 74.354 52.354 74.5588C49.6385 75.6851 49.6385 75.6851 48.1015 73.1766C47.7428 72.3575 47.0768 71.9479 45.8471 72.4087ZM38.9305 72.2551C39.2891 73.535 39.5965 74.5588 39.9552 75.5827C40.0576 75.8387 40.4163 76.197 40.6212 76.197C41.8508 76.0946 43.0805 75.8899 44.3101 75.6851C44.4638 75.6339 44.72 75.3779 44.72 75.1732C44.7712 74.2005 44.72 73.2278 44.72 72.2039C42.7218 72.2551 40.9286 72.2551 38.9305 72.2551ZM29.7595 72.3063C29.7595 73.279 29.7595 74.0469 29.7595 74.866C29.7082 75.9923 30.6817 75.8899 31.2965 75.8899C32.3724 75.8387 33.7045 77.0673 34.4731 75.6339C34.9854 74.6612 35.1391 73.4838 35.4978 72.3063C33.5508 72.3063 31.8088 72.3063 29.7595 72.3063ZM50.2533 74.3029C51.6367 73.6885 52.9175 73.1254 54.1472 72.5623C54.0959 72.4599 54.0447 72.3575 53.9935 72.2551C52.4052 72.2551 50.8682 72.2551 49.0749 72.2551C49.4848 73.023 49.8435 73.5861 50.2533 74.3029ZM20.6909 72.2551C20.6397 72.3575 20.6397 72.4599 20.5885 72.5623C21.8181 73.0742 22.9965 73.5862 24.2773 74.1493C24.636 73.4838 24.9434 72.9718 25.3533 72.2551C23.6113 72.2551 22.1767 72.2551 20.6909 72.2551Z" fill="white"/>
</svg>
