<svg width="53" height="53" viewBox="0 0 53 53" fill="none" xmlns="http://www.w3.org/2000/svg">
<g clip-path="url(#clip0_348_399)">
<path d="M52.7616 42.2436L52.4978 41.4488C51.873 39.5917 49.8251 37.6549 47.9437 37.1446L40.9806 35.2425C39.0924 34.7288 36.3988 35.4195 35.0173 36.801L32.4972 39.321C23.3387 36.8463 16.1571 29.6644 13.6857 20.5077L16.2058 17.9876C17.5874 16.606 18.2781 13.916 17.7643 12.0277L15.8656 5.06124C15.3519 3.17641 13.4115 1.12852 11.558 0.510615L10.7632 0.24337C8.90613 -0.37454 6.25766 0.250367 4.87622 1.6318L1.10657 5.4049C0.43312 6.0748 0.00270489 7.99084 0.00270489 7.99783C-0.129141 19.9661 4.56377 31.497 13.0297 39.963C21.4748 48.4082 32.9625 53.0942 44.896 52.9936C44.9585 52.9936 46.93 52.57 47.6035 51.9L51.3731 48.1304C52.7546 46.7491 53.3794 44.1007 52.7616 42.2436Z" fill="white"/>
</g>
<defs>
<clipPath id="clip0_348_399">
<rect width="53" height="53" fill="white"/>
</clipPath>
</defs>
</svg>
