<svg width="29" height="29" viewBox="0 0 29 29" fill="none" xmlns="http://www.w3.org/2000/svg">
<g clip-path="url(#clip0_449_489)">
<path d="M11.0217 21.6768C9.00265 21.6768 7.36008 23.3193 7.36008 25.3383C7.36008 27.3573 9.00265 28.9999 11.0217 28.9999C13.0407 28.9999 14.6832 27.3573 14.6832 25.3383C14.6832 23.3193 13.0406 21.6768 11.0217 21.6768ZM11.0217 26.8029C10.2139 26.8029 9.55704 26.1461 9.55704 25.3383C9.55704 24.5306 10.2139 23.8737 11.0217 23.8737C11.829 23.8737 12.4863 24.5306 12.4863 25.3383C12.4863 26.146 11.8294 26.8029 11.0217 26.8029Z" fill="white"/>
<path d="M21.8598 21.6768C19.8408 21.6768 18.1983 23.3193 18.1983 25.3383C18.1983 27.3573 19.8408 28.9999 21.8598 28.9999C23.8789 28.9999 25.5214 27.3573 25.5214 25.3383C25.5214 23.3193 23.8789 21.6768 21.8598 21.6768ZM21.8598 26.8029C21.0521 26.8029 20.3952 26.1461 20.3952 25.3383C20.3952 24.5306 21.0521 23.8737 21.8598 23.8737C22.6676 23.8737 23.3245 24.5306 23.3245 25.3383C23.3245 26.146 22.6676 26.8029 21.8598 26.8029Z" fill="white"/>
<path d="M28.2119 7.15222C28.0032 6.89003 27.6868 6.73739 27.3522 6.73739H8.11805L7.11953 1.69101C7.03202 1.24905 6.68346 0.905238 6.24002 0.823959L1.84614 0.0184192C1.24825 -0.091803 0.677028 0.304057 0.567542 0.900877C0.458056 1.4977 0.853123 2.06999 1.45 2.17948L5.10936 2.85027L8.333 19.1438C8.43478 19.6583 8.88626 20.0292 9.41058 20.0292H24.7891C25.3006 20.0292 25.7441 19.6766 25.8594 19.1775L28.4225 8.08299C28.4979 7.75674 28.4203 7.41401 28.2119 7.15222ZM23.9154 17.8323H10.3127L8.55265 8.9347H25.9706L23.9154 17.8323Z" fill="white"/>
</g>
<defs>
<clipPath id="clip0_449_489">
<rect width="29" height="29" fill="white"/>
</clipPath>
</defs>
</svg>
