<svg width="55" height="56" viewBox="0 0 55 56" fill="none" xmlns="http://www.w3.org/2000/svg">
<path d="M2.19385 15.7911C2.19385 15.4715 2.19385 15.1895 2.19385 14.7948C3.53342 15.1331 3.99935 14.1932 4.48471 13.3097C4.79533 12.727 5.18361 12.7082 5.74662 12.9525C6.21256 13.1405 6.89205 13.4789 7.16385 13.2909C7.80451 12.8585 8.28986 12.1818 8.77521 11.5803C8.85287 11.4863 8.73638 11.1855 8.63931 10.9975C8.36752 10.5088 8.0763 10.02 7.68802 9.39967C8.91111 8.44096 10.1148 7.46345 11.3573 6.54233C11.532 6.41075 11.9591 6.46714 12.1727 6.59873C12.658 6.8995 13.0657 7.29426 13.5511 7.68903C13.8423 7.51984 14.1141 7.36946 14.3859 7.21907C15.8613 6.35435 15.8419 6.37315 15.609 4.68131C15.5701 4.43693 15.8225 4.02337 16.0361 3.92938C17.2203 3.44062 18.4434 3.08345 19.6471 2.6135C20.2683 2.36912 20.579 2.5571 20.8702 3.08345C21.1225 3.53461 21.4526 4.21135 21.8215 4.24895C22.5592 4.34294 23.3357 4.09856 24.0929 3.91058C24.2482 3.87298 24.3841 3.53461 24.4229 3.30903C24.5394 2.82028 24.5977 2.33152 24.7141 1.69238C26.4226 1.69238 28.131 1.69238 29.8977 1.69238C29.9559 1.93676 30.053 2.10594 30.053 2.29393C30.0336 3.7038 30.7907 4.17375 32.1691 4.26774C32.8875 4.32414 33.2175 4.19255 33.5281 3.6286C34.227 2.38792 34.2659 2.36912 35.6248 2.82028C36.6344 3.15865 37.6245 3.51581 38.5952 3.92938C38.8282 4.02337 39.1194 4.51212 39.0417 4.68131C38.3816 6.14757 39.197 6.8431 40.4589 7.33186C40.6725 7.40705 40.8472 7.53864 41.0996 7.68903C41.682 7.21907 42.2839 6.76791 43.0216 6.18517C44.2253 7.20027 45.4289 8.17778 46.5744 9.21169C46.7297 9.34327 46.6714 9.81323 46.5938 10.0764C46.4191 10.6028 45.8366 11.1855 45.9725 11.5615C46.2249 12.2194 46.8267 12.8209 47.4092 13.2721C47.6227 13.4413 48.2828 13.2909 48.6323 13.1029C49.4671 12.6518 49.9912 12.821 50.3989 13.6293C50.7872 14.4376 51.292 15.0955 52.4374 14.776C52.4374 15.1895 52.4374 15.4715 52.4374 15.8287C35.6831 15.7911 18.9676 15.7911 2.19385 15.7911ZM11.2602 14.7196C22.035 14.7196 32.6739 14.7196 43.3905 14.7196C35.5084 5.33924 19.6083 5.01968 11.2602 14.7196Z" fill="#FAFBFF"/>
<path d="M52.4372 46.0938C52.4566 46.3945 52.476 46.6577 52.4954 47.0901C51.0588 47.0901 49.6804 47.1465 48.3214 47.0713C47.1177 46.9961 46.1664 47.2404 45.3122 48.1428C44.6521 48.8383 43.7785 49.3458 42.9825 49.9286C42.6913 49.7218 42.4584 49.609 42.303 49.421C41.5459 48.4999 40.8082 48.5563 39.7792 49.1767C38.925 49.6842 38.6532 50.1918 38.9832 51.0189C39.2939 51.8272 39.0221 52.222 38.2067 52.4664C37.1389 52.7859 36.0711 53.1431 35.0228 53.5567C34.3821 53.8198 34.0715 53.613 33.8385 53.0679C33.722 52.8047 33.6055 52.504 33.392 52.3536C33.1008 52.1468 32.7125 51.9024 32.4019 51.94C31.7224 52.0152 30.8487 52.0716 30.4605 52.4852C30.0528 52.9175 30.0916 53.7634 29.9169 54.5342C28.2084 54.5342 26.5 54.5342 24.8498 54.5342C24.7527 54.3462 24.6945 54.271 24.6751 54.1958C24.3062 52.0904 24.3062 52.0528 22.1513 51.9212C21.8406 51.9024 21.3941 52.2972 21.2 52.5979C20.2875 53.989 20.734 53.895 19.0644 53.3875C18.0549 53.0867 17.0648 52.7107 16.0941 52.2784C15.8611 52.1656 15.667 51.7332 15.667 51.4513C15.6475 50.9061 16.0358 50.1354 15.7834 49.8534C15.2787 49.2895 14.4827 48.9699 13.7644 48.6315C13.6285 48.5563 13.2984 48.7443 13.1237 48.8759C12.6578 49.2143 12.2307 49.5902 11.7259 50.0038C10.697 49.1955 9.74568 48.3871 8.73615 47.6728C8.32845 47.3908 7.78486 47.1653 7.2995 47.1465C5.88228 47.0713 4.46505 47.1277 3.02841 47.1089C2.15478 47.1089 2.15478 47.0901 2.27127 46.1125C18.9674 46.0938 35.6828 46.0938 52.4372 46.0938ZM19.6468 47.0713C22.7725 49.0827 32.4989 49.0639 34.9257 47.0713C29.8392 47.0713 24.8304 47.0713 19.6468 47.0713Z" fill="#FAFBFF"/>
<path d="M10.1341 30.5664C11.2601 30.5664 12.3279 30.5664 13.4927 30.5664C13.551 32.2018 13.4539 33.7433 12.5608 35.1155C11.163 37.2773 8.93042 37.4465 6.65897 37.1645C3.88276 36.8262 2.42671 35.3787 2.25198 32.3334C2.07726 29.1941 2.1355 26.0172 2.36847 22.8967C2.58202 20.0957 4.56226 18.5731 7.45495 18.5543C8.0762 18.5543 8.69745 18.5355 9.29928 18.6295C12.289 19.1182 13.8616 21.374 13.4345 24.6261C12.3667 24.6261 11.2795 24.6261 10.1341 24.6261C10.0564 24.0434 9.99819 23.4606 9.90112 22.8779C9.70698 21.7876 9.10514 21.28 8.01796 21.2048C6.93077 21.1296 6.21245 21.6372 5.90183 22.7275C5.84358 22.9343 5.78534 23.1598 5.78534 23.3666C5.78534 26.3931 5.74651 29.4197 5.80476 32.465C5.82417 33.8185 6.52308 34.4952 7.6685 34.5704C8.94983 34.6456 9.68756 34.1004 9.90112 32.8597C9.99819 32.1078 10.0564 31.3559 10.1341 30.5664Z" fill="#E41139"/>
<path d="M14.3469 18.8359H26.8302V21.7121H22.4814V37.0514H18.7733V21.6745H14.3081V18.8359" fill="#E41139"/>
<path d="M35.3724 18.9111H30.4995L25.6848 37.0702L29.82 37.089L30.9849 32.4271H34.7318L35.6054 37.2206H39.527L35.3724 18.9111ZM31.2761 29.5697L32.9068 21.5241L34.3241 29.5697H31.2761Z" fill="#E1113C"/>
<path d="M49.0399 25.8294V18.874H52.748V37.1271H49.0593V28.7807H44.5941V37.1459H40.886V18.8928H44.5747V25.8482C44.5941 25.8482 49.0593 25.8294 49.0399 25.8294Z" fill="#E1113C"/>
<path d="M2.81502 41.3371H3.22271C3.37803 41.3371 3.49451 41.2995 3.59158 41.2243C3.68865 41.1491 3.72748 41.0551 3.72748 40.9236C3.72748 40.8108 3.68865 40.698 3.59158 40.6416C3.49451 40.5664 3.37803 40.5288 3.22271 40.5288C3.0674 40.5288 2.9315 40.5664 2.83443 40.6416C2.73736 40.7168 2.67912 40.8296 2.67912 40.9424H2.0967C2.11611 40.6604 2.21318 40.4348 2.42674 40.2844C2.64029 40.1152 2.91209 40.04 3.24213 40.04C3.57217 40.04 3.82455 40.1152 4.0381 40.2656C4.23224 40.416 4.34873 40.604 4.34873 40.8484C4.34873 41.0175 4.29049 41.1679 4.19342 41.2807C4.09635 41.4123 3.94103 41.4875 3.78572 41.5251V41.5439C3.99928 41.5627 4.15459 41.6379 4.27107 41.7695C4.38756 41.9011 4.4458 42.0703 4.4458 42.2582C4.4458 42.5214 4.32931 42.7282 4.09635 42.8974C3.86338 43.0666 3.57217 43.1418 3.22271 43.1418C2.87326 43.1418 2.58205 43.0666 2.3685 42.8974C2.15494 42.7282 2.03846 42.5026 2.01904 42.2394H2.64029C2.65971 42.371 2.71795 42.465 2.81502 42.5402C2.9315 42.6154 3.0674 42.653 3.24213 42.653C3.39744 42.653 3.53334 42.6154 3.63041 42.5402C3.72748 42.465 3.78572 42.3522 3.78572 42.2206C3.78572 42.0891 3.72748 41.9951 3.63041 41.9199C3.53334 41.8447 3.39744 41.8071 3.22271 41.8071H2.81502V41.3371Z" fill="#FAFBFF"/>
<path d="M6.60071 42.3708H5.53294L5.29997 43.0851H4.63989L5.70767 40.1338H6.46481L7.53259 43.0851H6.85309L6.60071 42.3708ZM5.66884 41.9008H6.46481L6.07653 40.6977H6.05712L5.66884 41.9008Z" fill="#FAFBFF"/>
<path d="M7.86255 43.0851V40.1338H9.20212C9.49333 40.1338 9.70688 40.209 9.88161 40.3406C10.0563 40.4722 10.134 40.6601 10.134 40.8857C10.134 41.0549 10.0758 41.1865 9.95927 41.3181C9.84278 41.4309 9.70688 41.5061 9.55157 41.5437V41.5625C9.76513 41.5813 9.93985 41.6564 10.0758 41.788C10.2116 41.9196 10.2699 42.0888 10.2699 42.2768C10.2699 42.54 10.1728 42.7467 9.97868 42.8971C9.78454 43.0475 9.53216 43.1227 9.20212 43.1227H7.86255V43.0851ZM8.50321 41.3557H8.98856C9.16329 41.3557 9.29919 41.3181 9.37684 41.2429C9.47391 41.1677 9.51274 41.0737 9.51274 40.9609C9.51274 40.8481 9.47392 40.7541 9.39626 40.6789C9.3186 40.6225 9.20212 40.5849 9.04681 40.5849H8.50321V41.3557ZM9.08563 42.634C9.4545 42.634 9.64864 42.4836 9.64864 42.2016C9.64864 41.9196 9.4545 41.7692 9.06622 41.7692H8.50321V42.634H9.08563Z" fill="#FAFBFF"/>
<path d="M13.182 40.4917C13.4538 40.7737 13.5703 41.1308 13.5703 41.6196C13.5703 42.0895 13.4344 42.4655 13.182 42.7287C12.9102 43.0107 12.5608 43.1422 12.1143 43.1422C11.6677 43.1422 11.2989 43.0107 11.0465 42.7287C10.7747 42.4467 10.6582 42.0895 10.6582 41.6196C10.6582 41.1496 10.7941 40.7737 11.0465 40.4917C11.3183 40.2097 11.6677 40.0781 12.1143 40.0781C12.5608 40.0781 12.9102 40.2285 13.182 40.4917ZM11.5124 40.8677C11.3571 41.0556 11.2795 41.3 11.2795 41.6008C11.2795 41.9016 11.3571 42.1647 11.493 42.3339C11.6483 42.5219 11.8425 42.6159 12.0948 42.6159C12.3472 42.6159 12.5414 42.5219 12.6967 42.3339C12.852 42.1459 12.9102 41.9016 12.9102 41.6008C12.9102 41.3 12.8326 41.0368 12.6967 40.8677C12.5414 40.6797 12.3472 40.5857 12.0948 40.5857C11.8619 40.6045 11.6483 40.6985 11.5124 40.8677Z" fill="#FAFBFF"/>
<path d="M14.4052 43.6679H13.8228V42.5776H14.0363C14.1334 42.5024 14.211 42.4084 14.2499 42.2956C14.2887 42.1828 14.3081 42.0136 14.3275 41.8068L14.4246 40.1338H16.599V42.5776H16.9872V43.6679H16.4048V43.0851H14.4052V43.6679ZM14.9294 41.8444C14.9099 42.2016 14.8323 42.4272 14.7352 42.5588V42.5776H15.9777V40.6413H15.007L14.9294 41.8444Z" fill="#FAFBFF"/>
<path d="M17.3367 42.164V41.6377H18.7345V42.164H17.3367Z" fill="#FAFBFF"/>
<path d="M21.3164 41.0925H21.297L19.9186 43.0851H19.2974V40.1338H19.938V42.1452H19.9574L21.3358 40.1338H21.9571V43.0851H21.3164V41.0925Z" fill="#FAFBFF"/>
<path d="M23.1998 41.3371H23.6075C23.7628 41.3371 23.8793 41.2995 23.9763 41.2243C24.0734 41.1491 24.1122 41.0551 24.1122 40.9236C24.1122 40.8108 24.0734 40.698 23.9763 40.6416C23.8793 40.5664 23.7628 40.5288 23.6075 40.5288C23.4522 40.5288 23.3163 40.5664 23.2192 40.6416C23.1221 40.7168 23.0639 40.8296 23.0639 40.9424H22.4815C22.5009 40.6604 22.5979 40.4348 22.8115 40.2844C23.0251 40.1152 23.2969 40.04 23.6269 40.04C23.9569 40.04 24.2093 40.1152 24.4229 40.2656C24.617 40.416 24.7335 40.604 24.7335 40.8484C24.7335 41.0175 24.6753 41.1679 24.5782 41.2807C24.4811 41.3935 24.3258 41.4875 24.1705 41.5251V41.5439C24.384 41.5627 24.5394 41.6379 24.6558 41.7695C24.7723 41.9011 24.8306 42.0703 24.8306 42.2582C24.8306 42.5214 24.7141 42.7282 24.4811 42.8974C24.2481 43.0666 23.9569 43.1418 23.6075 43.1418C23.258 43.1418 22.9668 43.0666 22.7533 42.8974C22.5397 42.7282 22.4232 42.5026 22.4038 42.2394H23.0251C23.0445 42.371 23.1027 42.465 23.1998 42.5402C23.3163 42.6154 23.4522 42.653 23.6269 42.653C23.7822 42.653 23.9181 42.6154 24.0152 42.5402C24.1122 42.465 24.1705 42.3522 24.1705 42.2206C24.1705 42.0891 24.1122 41.9951 24.0152 41.9199C23.9181 41.8447 23.7822 41.8071 23.6075 41.8071H23.1998V41.3371Z" fill="#FAFBFF"/>
<path d="M25.2771 43.0851V40.1338H27.2379V40.6413H25.9178V43.0851H25.2771Z" fill="#FAFBFF"/>
<path d="M29.9557 40.4917C30.2275 40.7737 30.344 41.1308 30.344 41.6196C30.344 42.0895 30.2081 42.4655 29.9557 42.7287C29.6839 43.0107 29.3345 43.1422 28.8879 43.1422C28.4414 43.1422 28.0725 43.0107 27.8202 42.7287C27.5484 42.4467 27.4319 42.0895 27.4319 41.6196C27.4319 41.1496 27.5678 40.7737 27.8202 40.4917C28.092 40.2097 28.4414 40.0781 28.8879 40.0781C29.3345 40.0781 29.7033 40.2285 29.9557 40.4917ZM28.2861 40.8677C28.1308 41.0556 28.0531 41.3 28.0531 41.6008C28.0531 41.9016 28.1308 42.1647 28.2667 42.3339C28.422 42.5219 28.6161 42.6159 28.8685 42.6159C29.1209 42.6159 29.315 42.5219 29.4704 42.3339C29.6257 42.1459 29.6839 41.9016 29.6839 41.6008C29.6839 41.3 29.6063 41.0368 29.4704 40.8677C29.315 40.6797 29.1209 40.5857 28.8685 40.5857C28.6161 40.5857 28.4414 40.6985 28.2861 40.8677Z" fill="#FAFBFF"/>
<path d="M31.4121 43.0851V40.6413H30.519V40.1338H32.9458V40.6413H32.0528V43.0851H31.4121Z" fill="#FAFBFF"/>
<path d="M35.6442 40.4917C35.916 40.7737 36.0325 41.1308 36.0325 41.6196C36.0325 42.0895 35.8966 42.4655 35.6442 42.7287C35.3724 43.0107 35.0229 43.1422 34.5764 43.1422C34.1299 43.1422 33.761 43.0107 33.5086 42.7287C33.2368 42.4467 33.1204 42.0895 33.1204 41.6196C33.1204 41.1496 33.2563 40.7737 33.5086 40.4917C33.7804 40.2097 34.1299 40.0781 34.5764 40.0781C35.0229 40.0781 35.3918 40.2285 35.6442 40.4917ZM33.9746 40.8677C33.8193 41.0556 33.7416 41.3 33.7416 41.6008C33.7416 41.9016 33.8193 42.1647 33.9552 42.3339C34.1105 42.5219 34.3046 42.6159 34.557 42.6159C34.8094 42.6159 35.0035 42.5219 35.1588 42.3339C35.3141 42.1459 35.3724 41.9016 35.3724 41.6008C35.3724 41.3 35.2947 41.0368 35.1588 40.8677C35.0035 40.6797 34.8094 40.5857 34.557 40.5857C34.324 40.6045 34.1299 40.6985 33.9746 40.8677Z" fill="#FAFBFF"/>
<path d="M36.5178 43.0851V40.1338H37.8574C38.1486 40.1338 38.3622 40.209 38.5369 40.3406C38.7116 40.4722 38.7893 40.6601 38.7893 40.8857C38.7893 41.0549 38.731 41.1865 38.6145 41.3181C38.4981 41.4309 38.3622 41.5061 38.2068 41.5437V41.5625C38.4204 41.5813 38.5951 41.6564 38.731 41.788C38.8669 41.9196 38.9252 42.0888 38.9252 42.2768C38.9252 42.54 38.8281 42.7467 38.634 42.8971C38.4398 43.0475 38.1874 43.1227 37.8574 43.1227H36.5178V43.0851ZM37.1585 41.3557H37.6438C37.8186 41.3557 37.9545 41.3181 38.0321 41.2429C38.1292 41.1677 38.168 41.0737 38.168 40.9609C38.168 40.8481 38.1292 40.7541 38.0515 40.6789C37.9739 40.6225 37.8574 40.5849 37.7021 40.5849H37.1585V41.3557ZM37.7215 42.634C38.0904 42.634 38.2845 42.4836 38.2845 42.2016C38.2845 41.9196 38.0904 41.7692 37.7021 41.7692H37.1391V42.634H37.7215Z" fill="#FAFBFF"/>
<path d="M41.4295 41.0925H41.41L40.0316 43.0851H39.4104V40.1338H40.0511V42.1452H40.0705L41.4489 40.1338H42.0701V43.0851H41.4295V41.0925Z" fill="#FAFBFF"/>
<path d="M43.3711 43.0851V40.6413H42.478V40.1338H44.9048V40.6413H44.0117V43.0851H43.3711Z" fill="#FAFBFF"/>
<path d="M47.3701 43.0851H45.3511V40.1338H47.3701V40.6413H45.9917V41.3557H47.2925V41.8256H45.9917V42.5776H47.3701V43.0851Z" fill="#FAFBFF"/>
<path d="M49.8164 43.0851V40.6413H48.9234L48.8457 41.9196C48.8263 42.3144 48.7487 42.6152 48.6128 42.8031C48.4575 43.0099 48.2439 43.1227 47.9527 43.1227C47.8556 43.1227 47.778 43.1039 47.7197 43.0851V42.54C47.778 42.5588 47.8168 42.5588 47.8556 42.5588C47.9915 42.5588 48.0886 42.5024 48.1468 42.3896C48.2051 42.2768 48.2439 42.1076 48.2439 41.882L48.341 40.1338H50.4377V43.0851H49.8164Z" fill="#FAFBFF"/>
<path d="M51.0396 40.1338H51.6802V41.1301H52.282C52.6121 41.1301 52.8645 41.2241 53.078 41.3933C53.2722 41.5813 53.3887 41.8068 53.3887 42.1076C53.3887 42.4084 53.2916 42.634 53.0974 42.8219C52.9033 43.0099 52.6509 43.0851 52.3403 43.0851H51.0784V40.1338H51.0396ZM52.1462 42.5964C52.3209 42.5964 52.4762 42.5588 52.5733 42.4648C52.6703 42.3708 52.7286 42.258 52.7286 42.1076C52.7286 41.9572 52.6703 41.8256 52.5733 41.7316C52.4762 41.6376 52.3403 41.6001 52.1462 41.6001H51.6996V42.5776H52.1462V42.5964Z" fill="#FAFBFF"/>
</svg>
