<svg width="81" height="84" viewBox="0 0 81 84" fill="none" xmlns="http://www.w3.org/2000/svg">
<path d="M3.23096 23.6861C3.23096 23.2068 3.23096 22.7838 3.23096 22.1917C5.20378 22.6992 5.88998 21.2893 6.60477 19.9641C7.06223 19.09 7.63406 19.0618 8.46322 19.4283C9.14942 19.7103 10.1501 20.2178 10.5504 19.9359C11.4939 19.2873 12.2087 18.2722 12.9235 17.3699C13.0379 17.2289 12.8663 16.7778 12.7234 16.4958C12.3231 15.7627 11.8942 15.0295 11.3224 14.099C13.1237 12.6609 14.8963 11.1947 16.7262 9.81301C16.9835 9.61563 17.6125 9.70022 17.927 9.8976C18.6418 10.3488 19.2423 10.9409 19.957 11.5331C20.3859 11.2793 20.7862 11.0537 21.1865 10.8281C23.3594 9.53104 23.3309 9.55923 22.9878 7.02147C22.9306 6.6549 23.3023 6.03456 23.6168 5.89357C25.3609 5.16044 27.1621 4.62469 28.9348 3.91976C29.8497 3.55319 30.3072 3.83517 30.7361 4.62469C31.1078 5.30143 31.5938 6.31654 32.1371 6.37293C33.2235 6.51392 34.3672 6.14735 35.4823 5.86538C35.711 5.80898 35.9112 5.30143 35.9683 4.96306C36.1399 4.22993 36.2257 3.4968 36.3972 2.53809C38.9133 2.53809 41.4293 2.53809 44.0312 2.53809C44.1169 2.90465 44.2599 3.15843 44.2599 3.4404C44.2313 5.55521 45.3464 6.26014 47.3764 6.40113C48.4343 6.48572 48.9203 6.28834 49.3778 5.44242C50.4071 3.58139 50.4643 3.55319 52.4657 4.22993C53.9525 4.73748 55.4106 5.27323 56.8402 5.89357C57.1833 6.03456 57.6122 6.76769 57.4978 7.02147C56.5257 9.22087 57.7266 10.2642 59.585 10.9973C59.8995 11.1101 60.1568 11.3075 60.5285 11.5331C61.3863 10.8281 62.2726 10.1514 63.3591 9.27726C65.1318 10.7999 66.9045 12.2662 68.5914 13.817C68.8201 14.0144 68.7343 14.7194 68.6199 15.1141C68.3626 15.9036 67.5049 16.7778 67.705 17.3417C68.0767 18.3286 68.9631 19.2309 69.8208 19.9077C70.1353 20.1615 71.1074 19.9359 71.6221 19.6539C72.8515 18.9772 73.6235 19.2309 74.2239 20.4434C74.7957 21.6559 75.5391 22.6428 77.226 22.1635C77.226 22.7838 77.226 23.2068 77.226 23.7425C52.5515 23.6861 27.9341 23.6861 3.23096 23.6861ZM16.5832 22.0789C32.4516 22.0789 48.1198 22.0789 63.9023 22.0789C52.2941 8.00838 28.8776 7.52902 16.5832 22.0789Z" fill="#5E6064"/>
<path d="M77.2258 69.1406C77.2544 69.5918 77.283 69.9865 77.3116 70.6351C75.1958 70.6351 73.1658 70.7197 71.1644 70.6069C69.3917 70.4941 67.9907 70.8607 66.7327 72.2141C65.7606 73.2574 64.474 74.0188 63.3017 74.8929C62.8728 74.5827 62.5297 74.4135 62.301 74.1316C61.1859 72.7499 60.0995 72.8345 58.5841 73.765C57.3261 74.5263 56.9258 75.2877 57.4118 76.5283C57.8693 77.7408 57.469 78.333 56.2682 78.6995C54.6956 79.1789 53.1231 79.7146 51.5792 80.335C50.6356 80.7297 50.1782 80.4196 49.8351 79.6019C49.6635 79.2071 49.492 78.7559 49.1775 78.5304C48.7486 78.2202 48.1768 77.8536 47.7193 77.91C46.7186 78.0228 45.432 78.1074 44.8601 78.7277C44.2597 79.3763 44.3169 80.6452 44.0596 81.8013C41.5435 81.8013 39.0274 81.8013 36.5972 81.8013C36.4542 81.5193 36.3684 81.4065 36.3398 81.2937C35.7966 78.1356 35.7966 78.0792 32.6229 77.8818C32.1655 77.8536 31.5079 78.4458 31.2219 78.8969C29.8781 80.9835 30.5357 80.8425 28.0769 80.0812C26.5901 79.6301 25.1319 79.0661 23.7023 78.4176C23.3592 78.2484 23.0733 77.5998 23.0733 77.1769C23.0447 76.3592 23.6166 75.2031 23.2449 74.7801C22.5015 73.9342 21.3292 73.4548 20.2714 72.9473C20.0712 72.8345 19.5852 73.1165 19.3278 73.3138C18.6416 73.8214 18.0126 74.3853 17.2692 75.0057C15.7539 73.7932 14.3529 72.5807 12.8661 71.5092C12.2657 71.0862 11.4651 70.7479 10.7503 70.7197C8.66316 70.6069 6.57597 70.6915 4.4602 70.6633C3.17357 70.6633 3.17357 70.6351 3.34512 69.1688C27.9339 69.1406 52.5513 69.1406 77.2258 69.1406ZM28.9346 70.6069C33.5379 73.624 47.8622 73.5958 51.4362 70.6069C43.9452 70.6069 36.5686 70.6069 28.9346 70.6069Z" fill="#5E6064"/>
<path d="M14.9248 45.8495C16.5831 45.8495 18.1557 45.8495 19.8711 45.8495C19.9569 48.3027 19.814 50.6149 18.4987 52.6733C16.4402 55.916 13.1521 56.1698 9.8069 55.7468C5.71831 55.2393 3.57394 53.0681 3.31661 48.5001C3.05929 43.7911 3.14506 39.0258 3.48816 34.345C3.80267 30.1436 6.71901 27.8596 10.9792 27.8314C11.8941 27.8314 12.809 27.8032 13.6954 27.9442C18.0985 28.6773 20.4144 32.061 19.7854 36.9392C18.2128 36.9392 16.6117 36.9392 14.9248 36.9392C14.8104 36.065 14.7247 35.1909 14.5817 34.3168C14.2958 32.6814 13.4094 31.92 11.8083 31.8072C10.2072 31.6944 9.1493 32.4558 8.69183 34.0912C8.60606 34.4014 8.52028 34.7398 8.52028 35.0499C8.52028 39.5897 8.4631 44.1295 8.54887 48.6975C8.57747 50.7277 9.60676 51.7428 11.2937 51.8556C13.1807 51.9684 14.2672 51.1506 14.5817 49.2896C14.7247 48.1617 14.8104 47.0338 14.9248 45.8495Z" fill="#E41139"/>
<path d="M21.129 28.2539H39.5134V32.5681H33.1088V55.5772H27.6478V32.5117H21.0718V28.2539" fill="#E41139"/>
<path d="M52.0939 28.3662H44.9174L37.8267 55.6049L43.9167 55.6331L45.6322 48.6401H51.1503L52.437 55.8305H58.2125L52.0939 28.3662ZM46.061 44.3541L48.4627 32.2856L50.5499 44.3541H46.061Z" fill="#E1113C"/>
<path d="M72.2223 38.7436V28.3105H77.6833V55.6902H72.2509V43.1706H65.6749V55.7184H60.2139V28.3387H65.6463V38.7718C65.6749 38.7718 72.2509 38.7436 72.2223 38.7436Z" fill="#E1113C"/>
<path d="M4.14589 62.0062H4.74631C4.97504 62.0062 5.14659 61.9498 5.28955 61.837C5.43251 61.7242 5.48969 61.5832 5.48969 61.3858C5.48969 61.2166 5.43251 61.0475 5.28955 60.9629C5.14659 60.8501 4.97504 60.7937 4.74631 60.7937C4.51758 60.7937 4.31744 60.8501 4.17448 60.9629C4.03152 61.0757 3.94575 61.2448 3.94575 61.414H3.088C3.11659 60.9911 3.25955 60.6527 3.57406 60.4271C3.88856 60.1733 4.28885 60.0605 4.7749 60.0605C5.26096 60.0605 5.63265 60.1733 5.94716 60.3989C6.23307 60.6245 6.40462 60.9065 6.40462 61.273C6.40462 61.5268 6.31885 61.7524 6.17589 61.9216C6.03293 62.119 5.8042 62.2317 5.57547 62.2881V62.3163C5.88998 62.3445 6.11871 62.4573 6.29026 62.6547C6.46181 62.8521 6.54758 63.1059 6.54758 63.3878C6.54758 63.7826 6.37603 64.0928 6.03293 64.3465C5.68983 64.6003 5.26096 64.7131 4.74631 64.7131C4.23166 64.7131 3.80279 64.6003 3.48828 64.3465C3.17377 64.0928 3.00222 63.7544 2.97363 63.3596H3.88856C3.91716 63.557 4.00293 63.698 4.14589 63.8108C4.31744 63.9236 4.51758 63.98 4.7749 63.98C5.00364 63.98 5.20378 63.9236 5.34674 63.8108C5.48969 63.698 5.57547 63.5288 5.57547 63.3314C5.57547 63.1341 5.48969 62.9931 5.34674 62.8803C5.20378 62.7675 5.00364 62.7111 4.74631 62.7111H4.14589V62.0062Z" fill="#5E6064"/>
<path d="M9.72125 63.5567H8.14871L7.80561 64.6282H6.8335L8.40603 60.2012H9.52111L11.0936 64.6282H10.0929L9.72125 63.5567ZM8.34885 62.8517H9.52111L8.94927 61.0471H8.92068L8.34885 62.8517Z" fill="#5E6064"/>
<path d="M11.5796 64.6282V60.2012H13.5524C13.9813 60.2012 14.2958 60.314 14.5531 60.5113C14.8104 60.7087 14.9248 60.9907 14.9248 61.3291C14.9248 61.5828 14.839 61.7802 14.6675 61.9776C14.4959 62.1468 14.2958 62.2596 14.0671 62.316V62.3442C14.3816 62.3724 14.6389 62.4852 14.839 62.6825C15.0392 62.8799 15.1249 63.1337 15.1249 63.4157C15.1249 63.8104 14.982 64.1206 14.6961 64.3462C14.4102 64.5718 14.0385 64.6846 13.5524 64.6846H11.5796V64.6282ZM12.5231 62.034H13.2379C13.4952 62.034 13.6954 61.9776 13.8097 61.8648C13.9527 61.752 14.0099 61.611 14.0099 61.4419C14.0099 61.2727 13.9527 61.1317 13.8383 61.0189C13.724 60.9343 13.5524 60.8779 13.3237 60.8779H12.5231V62.034ZM13.3809 63.9514C13.9241 63.9514 14.21 63.7258 14.21 63.3029C14.21 62.8799 13.9241 62.6543 13.3523 62.6543H12.5231V63.9514H13.3809Z" fill="#5E6064"/>
<path d="M19.4137 60.7375C19.814 61.1605 19.9855 61.6962 19.9855 62.4294C19.9855 63.1343 19.7854 63.6983 19.4137 64.093C19.0134 64.516 18.4988 64.7134 17.8411 64.7134C17.1835 64.7134 16.6403 64.516 16.2686 64.093C15.8683 63.6701 15.6968 63.1343 15.6968 62.4294C15.6968 61.7244 15.8969 61.1605 16.2686 60.7375C16.6689 60.3146 17.1835 60.1172 17.8411 60.1172C18.4988 60.1172 19.0134 60.3428 19.4137 60.7375ZM16.9548 61.3015C16.7261 61.5835 16.6117 61.95 16.6117 62.4012C16.6117 62.8523 16.7261 63.2471 16.9262 63.5009C17.1549 63.7828 17.4409 63.9238 17.8126 63.9238C18.1842 63.9238 18.4702 63.7828 18.6989 63.5009C18.9276 63.2189 19.0134 62.8523 19.0134 62.4012C19.0134 61.95 18.899 61.5553 18.6989 61.3015C18.4702 61.0195 18.1842 60.8785 17.8126 60.8785C17.4695 60.9067 17.1549 61.0477 16.9548 61.3015Z" fill="#5E6064"/>
<path d="M21.2152 65.5023H20.3574V63.8668H20.6719C20.8149 63.754 20.9293 63.6131 20.9864 63.4439C21.0436 63.2747 21.0722 63.0209 21.1008 62.7107L21.2438 60.2012H24.446V63.8668H25.0179V65.5023H24.1601V64.6282H21.2152V65.5023ZM21.9871 62.7671C21.9586 63.3029 21.8442 63.6413 21.7012 63.8386V63.8668H23.5311V60.9625H22.1015L21.9871 62.7671Z" fill="#5E6064"/>
<path d="M25.5322 63.2466V62.457H27.5908V63.2466H25.5322Z" fill="#5E6064"/>
<path d="M31.3934 61.6392H31.3649L29.3349 64.6282H28.4199V60.2012H29.3634V63.2183H29.392L31.422 60.2012H32.337V64.6282H31.3934V61.6392Z" fill="#5E6064"/>
<path d="M34.1669 62.0062H34.7673C34.996 62.0062 35.1676 61.9498 35.3105 61.837C35.4535 61.7242 35.5107 61.5832 35.5107 61.3858C35.5107 61.2166 35.4535 61.0475 35.3105 60.9629C35.1676 60.8501 34.996 60.7937 34.7673 60.7937C34.5386 60.7937 34.3384 60.8501 34.1955 60.9629C34.0525 61.0757 33.9667 61.2448 33.9667 61.414H33.109C33.1376 60.9911 33.2805 60.6527 33.5951 60.4271C33.9096 60.1733 34.3098 60.0605 34.7959 60.0605C35.282 60.0605 35.6536 60.1733 35.9682 60.3989C36.2541 60.6245 36.4256 60.9065 36.4256 61.273C36.4256 61.5268 36.3398 61.7524 36.1969 61.9216C36.0539 62.0908 35.8252 62.2317 35.5965 62.2881V62.3163C35.911 62.3445 36.1397 62.4573 36.3113 62.6547C36.4828 62.8521 36.5686 63.1059 36.5686 63.3878C36.5686 63.7826 36.397 64.0928 36.0539 64.3465C35.7108 64.6003 35.282 64.7131 34.7673 64.7131C34.2527 64.7131 33.8238 64.6003 33.5093 64.3465C33.1948 64.0928 33.0232 63.7544 32.9946 63.3596H33.9096C33.9382 63.557 34.0239 63.698 34.1669 63.8108C34.3384 63.9236 34.5386 63.98 34.7959 63.98C35.0246 63.98 35.2248 63.9236 35.3677 63.8108C35.5107 63.698 35.5965 63.5288 35.5965 63.3314C35.5965 63.1341 35.5107 62.9931 35.3677 62.8803C35.2248 62.7675 35.0246 62.7111 34.7673 62.7111H34.1669V62.0062Z" fill="#5E6064"/>
<path d="M37.2266 64.6282V60.2012H40.1143V60.9625H38.1701V64.6282H37.2266Z" fill="#5E6064"/>
<path d="M44.1168 60.7375C44.5171 61.1605 44.6886 61.6962 44.6886 62.4294C44.6886 63.1343 44.4885 63.6983 44.1168 64.093C43.7165 64.516 43.2019 64.7134 42.5443 64.7134C41.8867 64.7134 41.3434 64.516 40.9717 64.093C40.5715 63.6701 40.3999 63.1343 40.3999 62.4294C40.3999 61.7244 40.6 61.1605 40.9717 60.7375C41.372 60.3146 41.8867 60.1172 42.5443 60.1172C43.2019 60.1172 43.7451 60.3428 44.1168 60.7375ZM41.6579 61.3015C41.4292 61.5835 41.3148 61.95 41.3148 62.4012C41.3148 62.8523 41.4292 63.2471 41.6293 63.5009C41.8581 63.7828 42.144 63.9238 42.5157 63.9238C42.8874 63.9238 43.1733 63.7828 43.402 63.5009C43.6308 63.2189 43.7165 62.8523 43.7165 62.4012C43.7165 61.95 43.6022 61.5553 43.402 61.3015C43.1733 61.0195 42.8874 60.8785 42.5157 60.8785C42.144 60.8785 41.8867 61.0477 41.6579 61.3015Z" fill="#5E6064"/>
<path d="M46.2615 64.6282V60.9625H44.9463V60.2012H48.5202V60.9625H47.205V64.6282H46.2615Z" fill="#5E6064"/>
<path d="M52.4943 60.7375C52.8945 61.1605 53.0661 61.6962 53.0661 62.4294C53.0661 63.1343 52.8659 63.6983 52.4943 64.093C52.094 64.516 51.5793 64.7134 50.9217 64.7134C50.2641 64.7134 49.7209 64.516 49.3492 64.093C48.9489 63.6701 48.7773 63.1343 48.7773 62.4294C48.7773 61.7244 48.9775 61.1605 49.3492 60.7375C49.7495 60.3146 50.2641 60.1172 50.9217 60.1172C51.5793 60.1172 52.1226 60.3428 52.4943 60.7375ZM50.0354 61.3015C49.8066 61.5835 49.6923 61.95 49.6923 62.4012C49.6923 62.8523 49.8066 63.2471 50.0068 63.5009C50.2355 63.7828 50.5214 63.9238 50.8931 63.9238C51.2648 63.9238 51.5507 63.7828 51.7795 63.5009C52.0082 63.2189 52.094 62.8523 52.094 62.4012C52.094 61.95 51.9796 61.5553 51.7795 61.3015C51.5507 61.0195 51.2648 60.8785 50.8931 60.8785C50.55 60.9067 50.2641 61.0477 50.0354 61.3015Z" fill="#5E6064"/>
<path d="M53.7808 64.6282V60.2012H55.7536C56.1825 60.2012 56.497 60.314 56.7543 60.5113C57.0116 60.7087 57.126 60.9907 57.126 61.3291C57.126 61.5828 57.0402 61.7802 56.8687 61.9776C56.6971 62.1468 56.497 62.2596 56.2682 62.316V62.3442C56.5827 62.3724 56.8401 62.4852 57.0402 62.6825C57.2403 62.8799 57.3261 63.1337 57.3261 63.4157C57.3261 63.8104 57.1832 64.1206 56.8972 64.3462C56.6113 64.5718 56.2396 64.6846 55.7536 64.6846H53.7808V64.6282ZM54.7243 62.034H55.4391C55.6964 62.034 55.8965 61.9776 56.0109 61.8648C56.1539 61.752 56.211 61.611 56.211 61.4419C56.211 61.2727 56.1539 61.1317 56.0395 61.0189C55.9251 60.9343 55.7536 60.8779 55.5248 60.8779H54.7243V62.034ZM55.5534 63.9514C56.0967 63.9514 56.3826 63.7258 56.3826 63.3029C56.3826 62.8799 56.0967 62.6543 55.5248 62.6543H54.6957V63.9514H55.5534Z" fill="#5E6064"/>
<path d="M61.0145 61.6392H60.986L58.9559 64.6282H58.041V60.2012H58.9845V63.2183H59.0131L61.0431 60.2012H61.9581V64.6282H61.0145V61.6392Z" fill="#5E6064"/>
<path d="M63.8738 64.6282V60.9625H62.5586V60.2012H66.1325V60.9625H64.8173V64.6282H63.8738Z" fill="#5E6064"/>
<path d="M69.7636 64.6282H66.79V60.2012H69.7636V60.9625H67.7336V62.034H69.6492V62.7389H67.7336V63.8668H69.7636V64.6282Z" fill="#5E6064"/>
<path d="M73.3662 64.6282V60.9625H72.051L71.9366 62.8799C71.908 63.4721 71.7937 63.9232 71.5935 64.2052C71.3648 64.5154 71.0503 64.6846 70.6214 64.6846C70.4785 64.6846 70.3641 64.6564 70.2783 64.6282V63.8104C70.3641 63.8386 70.4213 63.8386 70.4785 63.8386C70.6786 63.8386 70.8216 63.754 70.9073 63.5849C70.9931 63.4157 71.0503 63.1619 71.0503 62.8235L71.1933 60.2012H74.2811V64.6282H73.3662Z" fill="#5E6064"/>
<path d="M75.1675 60.2012H76.111V61.6956H76.9973C77.4834 61.6956 77.8551 61.8366 78.1696 62.0904C78.4555 62.3724 78.6271 62.7107 78.6271 63.1619C78.6271 63.6131 78.4841 63.9514 78.1982 64.2334C77.9123 64.5154 77.5406 64.6282 77.0831 64.6282H75.2247V60.2012H75.1675ZM76.7972 63.895C77.0545 63.895 77.2833 63.8386 77.4262 63.6976C77.5692 63.5567 77.655 63.3875 77.655 63.1619C77.655 62.9363 77.5692 62.7389 77.4262 62.5979C77.2833 62.457 77.0831 62.4006 76.7972 62.4006H76.1396V63.8668H76.7972V63.895Z" fill="#5E6064"/>
</svg>
