<svg width="25" height="25" viewBox="0 0 25 25" fill="none" xmlns="http://www.w3.org/2000/svg">
<g clip-path="url(#clip0_449_496)">
<path d="M22.7233 10.2182H14.7749V2.27633C14.7749 1.01923 13.7606 0 12.5035 0C11.2464 0 10.2327 1.01923 10.2327 2.27688V10.2237H2.2804C1.02329 10.2237 0.00131183 11.2429 0.00186247 12.5006C0.00131183 13.1288 0.255155 13.7048 0.666481 14.1161C1.07836 14.5285 1.64661 14.789 2.27434 14.789H10.2327V22.7248C10.2327 23.3536 10.4821 23.923 10.894 24.3337C11.3059 24.7456 11.8725 25.0006 12.5013 25.0006C13.7579 25.0006 14.7749 23.9813 14.7749 22.7248V14.7884H22.7233C23.9804 14.7884 24.9997 13.7604 24.9991 12.5033C24.9986 11.2468 23.9793 10.2182 22.7233 10.2182Z" fill="white"/>
</g>
<defs>
<clipPath id="clip0_449_496">
<rect width="25" height="25" fill="white"/>
</clipPath>
</defs>
</svg>
