<svg width="16" height="16" viewBox="0 0 16 16" fill="none" xmlns="http://www.w3.org/2000/svg">
<g clip-path="url(#clip0_1217_81)">
<path d="M0.637939 4.5116C0.637939 4.42029 0.637939 4.33973 0.637939 4.22694C1.02763 4.32361 1.16318 4.05507 1.30437 3.80263C1.39473 3.63613 1.50769 3.63076 1.67147 3.70059C1.80702 3.7543 2.00469 3.85097 2.08376 3.79726C2.27013 3.67373 2.41132 3.48038 2.55252 3.30851C2.57511 3.28165 2.54122 3.19572 2.51298 3.14201C2.43392 3.00236 2.3492 2.86272 2.23625 2.68548C2.59205 2.41156 2.94221 2.13227 3.30367 1.8691C3.35449 1.8315 3.47874 1.84761 3.54087 1.88521C3.68206 1.97115 3.80066 2.08394 3.94186 2.19673C4.02657 2.14839 4.10564 2.10542 4.18471 2.06245C4.61394 1.81539 4.60829 1.82076 4.54052 1.33738C4.52922 1.26755 4.60264 1.14939 4.66477 1.12254C5.00928 0.982895 5.36508 0.880847 5.71524 0.746574C5.89597 0.676752 5.98633 0.730461 6.07105 0.880847C6.14447 1.00975 6.24048 1.2031 6.34779 1.21384C6.5624 1.2407 6.78831 1.17088 7.00857 1.11717C7.05375 1.10643 7.09329 1.00975 7.10458 0.945298C7.13847 0.805654 7.15541 0.66601 7.1893 0.483398C7.6863 0.483398 8.1833 0.483398 8.69724 0.483398C8.71418 0.553221 8.74242 0.601559 8.74242 0.655268C8.73678 1.05809 8.95704 1.19236 9.35802 1.21922C9.56699 1.23533 9.663 1.19773 9.75337 1.0366C9.95668 0.682123 9.96798 0.676752 10.3633 0.805654C10.657 0.902331 10.945 1.00438 11.2274 1.12254C11.2952 1.14939 11.3799 1.28904 11.3573 1.33738C11.1653 1.75631 11.4025 1.95503 11.7696 2.09468C11.8317 2.11616 11.8826 2.15376 11.956 2.19673C12.1254 2.06245 12.3005 1.93355 12.5151 1.76705C12.8653 2.05708 13.2154 2.33637 13.5486 2.63177C13.5938 2.66937 13.5769 2.80364 13.5543 2.87883C13.5035 3.02922 13.334 3.19572 13.3736 3.30314C13.447 3.49112 13.6221 3.66299 13.7915 3.79189C13.8536 3.84023 14.0456 3.79726 14.1473 3.74355C14.3901 3.61465 14.5426 3.66299 14.6612 3.89394C14.7742 4.12489 14.921 4.31287 15.2542 4.22157C15.2542 4.33973 15.2542 4.42029 15.2542 4.52234C10.3803 4.5116 5.51757 4.5116 0.637939 4.5116ZM3.27543 4.20545C6.40991 4.20545 9.50487 4.20545 12.6224 4.20545C10.3294 1.52536 5.70395 1.43405 3.27543 4.20545Z" fill="#5E6064"/>
<path d="M15.2544 13.1699C15.2601 13.2559 15.2657 13.331 15.2714 13.4546C14.8535 13.4546 14.4525 13.4707 14.0571 13.4492C13.707 13.4277 13.4302 13.4975 13.1817 13.7554C12.9897 13.9541 12.7356 14.0991 12.504 14.2656C12.4193 14.2065 12.3515 14.1743 12.3063 14.1206C12.0861 13.8574 11.8715 13.8735 11.5721 14.0508C11.3236 14.1958 11.2446 14.3408 11.3406 14.5771C11.4309 14.8081 11.3519 14.9208 11.1147 14.9907C10.804 15.082 10.4934 15.184 10.1884 15.3022C10.0021 15.3774 9.91169 15.3183 9.84392 15.1625C9.81004 15.0873 9.77615 15.0014 9.71402 14.9584C9.62931 14.8994 9.51635 14.8295 9.42599 14.8403C9.22832 14.8618 8.97417 14.8779 8.86122 14.996C8.74262 15.1196 8.75391 15.3613 8.70308 15.5815C8.20608 15.5815 7.70908 15.5815 7.22903 15.5815C7.20079 15.5278 7.18384 15.5063 7.1782 15.4848C7.07089 14.8832 7.07089 14.8725 6.44399 14.8349C6.35363 14.8295 6.22373 14.9423 6.16725 15.0283C5.90181 15.4257 6.03171 15.3989 5.546 15.2538C5.25232 15.1679 4.96429 15.0605 4.6819 14.937C4.61413 14.9047 4.55765 14.7812 4.55765 14.7006C4.552 14.5449 4.66496 14.3247 4.59154 14.2441C4.4447 14.083 4.21314 13.9917 4.00418 13.895C3.96464 13.8735 3.86863 13.9272 3.8178 13.9648C3.68226 14.0615 3.55801 14.1689 3.41116 14.2871C3.11184 14.0561 2.8351 13.8252 2.54141 13.6211C2.42281 13.5405 2.26468 13.4761 2.12348 13.4707C1.7112 13.4492 1.29892 13.4653 0.880984 13.46C0.626837 13.46 0.626837 13.4546 0.660723 13.1753C5.51777 13.1699 10.3805 13.1699 15.2544 13.1699ZM5.71544 13.4492C6.62472 14.0239 9.45423 14.0185 10.1602 13.4492C8.68049 13.4492 7.22338 13.4492 5.71544 13.4492Z" fill="#5E6064"/>
<path d="M2.94802 8.73324C3.27559 8.73324 3.58621 8.73324 3.92507 8.73324C3.94202 9.20051 3.91378 9.64093 3.65398 10.033C3.24735 10.6507 2.59786 10.699 1.93708 10.6184C1.12945 10.5218 0.705872 10.1082 0.655043 9.23811C0.604213 8.34117 0.621156 7.43348 0.688929 6.5419C0.751054 5.74164 1.32712 5.30659 2.16863 5.30122C2.34936 5.30122 2.53009 5.29585 2.70517 5.3227C3.57492 5.46235 4.03238 6.10686 3.90813 7.03603C3.59751 7.03603 3.28123 7.03603 2.94802 7.03603C2.92543 6.86953 2.90848 6.70303 2.88025 6.53653C2.82377 6.22502 2.64869 6.08 2.33242 6.05852C2.01614 6.03704 1.80718 6.18205 1.71681 6.49357C1.69987 6.55265 1.68293 6.6171 1.68293 6.67618C1.68293 7.5409 1.67163 8.40562 1.68858 9.27571C1.69422 9.66241 1.89754 9.85577 2.23076 9.87725C2.60351 9.89874 2.81812 9.74298 2.88025 9.3885C2.90848 9.17366 2.92543 8.95882 2.94802 8.73324Z" fill="#E41139"/>
<path d="M4.17365 5.38184H7.80514V6.20359H6.54005V10.5863H5.46133V6.19285H4.16235V5.38184" fill="#E41139"/>
<path d="M10.2901 5.40332H8.87256L7.47192 10.5916L8.67489 10.597L9.01375 9.26502H10.1038L10.3579 10.6346H11.4988L10.2901 5.40332ZM9.09847 8.44864L9.57288 6.14988L9.98516 8.44864H9.09847Z" fill="#E1113C"/>
<path d="M14.2661 7.37982V5.39258H15.3448V10.6078H14.2717V8.22306H12.9728V10.6131H11.894V5.39795H12.9671V7.38519C12.9728 7.38519 14.2717 7.37982 14.2661 7.37982Z" fill="#E1113C"/>
<path d="M0.818959 11.811H0.937561C0.982743 11.811 1.01663 11.8003 1.04487 11.7788C1.07311 11.7573 1.0844 11.7305 1.0844 11.6929C1.0844 11.6606 1.07311 11.6284 1.04487 11.6123C1.01663 11.5908 0.982743 11.5801 0.937561 11.5801C0.892379 11.5801 0.852845 11.5908 0.824607 11.6123C0.796368 11.6338 0.779425 11.666 0.779425 11.6982H0.609993C0.615641 11.6177 0.64388 11.5532 0.706005 11.5103C0.76813 11.4619 0.847198 11.4404 0.943209 11.4404C1.03922 11.4404 1.11264 11.4619 1.17477 11.5049C1.23124 11.5478 1.26513 11.6016 1.26513 11.6714C1.26513 11.7197 1.24819 11.7627 1.21995 11.7949C1.19171 11.8325 1.14653 11.854 1.10135 11.8647V11.8701C1.16347 11.8755 1.20865 11.897 1.24254 11.9346C1.27642 11.9722 1.29337 12.0205 1.29337 12.0742C1.29337 12.1494 1.25948 12.2085 1.19171 12.2568C1.12394 12.3051 1.03922 12.3266 0.937561 12.3266C0.835902 12.3266 0.751186 12.3051 0.689061 12.2568C0.626936 12.2085 0.59305 12.144 0.587402 12.0688H0.76813C0.773777 12.1064 0.79072 12.1333 0.818959 12.1548C0.852845 12.1762 0.892379 12.187 0.943209 12.187C0.988391 12.187 1.02792 12.1762 1.05616 12.1548C1.0844 12.1333 1.10135 12.1011 1.10135 12.0635C1.10135 12.0259 1.0844 11.999 1.05616 11.9775C1.02792 11.956 0.988391 11.9453 0.937561 11.9453H0.818959V11.811Z" fill="#5E6064"/>
<path d="M1.92027 12.1059H1.60965L1.54188 12.31H1.34985L1.66048 11.4668H1.88074L2.19136 12.31H1.99369L1.92027 12.1059ZM1.64918 11.9717H1.88074L1.76778 11.6279H1.76214L1.64918 11.9717Z" fill="#5E6064"/>
<path d="M2.28735 12.31V11.4668H2.67705C2.76176 11.4668 2.82389 11.4883 2.87472 11.5259C2.92555 11.5635 2.94814 11.6172 2.94814 11.6816C2.94814 11.73 2.93119 11.7676 2.89731 11.8052C2.86342 11.8374 2.82389 11.8589 2.77871 11.8696V11.875C2.84083 11.8804 2.89166 11.9018 2.93119 11.9394C2.97073 11.977 2.98767 12.0254 2.98767 12.0791C2.98767 12.1543 2.95943 12.2134 2.90296 12.2563C2.84648 12.2993 2.77306 12.3208 2.67705 12.3208H2.28735V12.31ZM2.47373 11.8159H2.61492C2.66575 11.8159 2.70529 11.8052 2.72788 11.7837C2.75611 11.7622 2.76741 11.7353 2.76741 11.7031C2.76741 11.6709 2.75611 11.644 2.73352 11.6226C2.71093 11.6064 2.67705 11.5957 2.63186 11.5957H2.47373V11.8159ZM2.64316 12.1811C2.75047 12.1811 2.80694 12.1382 2.80694 12.0576C2.80694 11.977 2.75047 11.9341 2.63751 11.9341H2.47373V12.1811H2.64316Z" fill="#5E6064"/>
<path d="M3.83503 11.5693C3.9141 11.6499 3.94799 11.7519 3.94799 11.8916C3.94799 12.0259 3.90845 12.1333 3.83503 12.2085C3.75597 12.289 3.65431 12.3266 3.52441 12.3266C3.39451 12.3266 3.2872 12.289 3.21378 12.2085C3.13472 12.1279 3.10083 12.0259 3.10083 11.8916C3.10083 11.7573 3.14036 11.6499 3.21378 11.5693C3.29285 11.4888 3.39451 11.4512 3.52441 11.4512C3.65431 11.4512 3.75597 11.4941 3.83503 11.5693ZM3.34933 11.6768C3.30415 11.7305 3.28156 11.8003 3.28156 11.8862C3.28156 11.9722 3.30415 12.0473 3.34368 12.0957C3.38886 12.1494 3.44534 12.1762 3.51876 12.1762C3.59218 12.1762 3.64866 12.1494 3.69384 12.0957C3.73902 12.042 3.75597 11.9722 3.75597 11.8862C3.75597 11.8003 3.73338 11.7251 3.69384 11.6768C3.64866 11.623 3.59218 11.5962 3.51876 11.5962C3.45099 11.6016 3.38886 11.6284 3.34933 11.6768Z" fill="#5E6064"/>
<path d="M4.19067 12.4765H4.02124V12.165H4.08337C4.1116 12.1435 4.13419 12.1167 4.14549 12.0845C4.15679 12.0522 4.16243 12.0039 4.16808 11.9448L4.19632 11.4668H4.82886V12.165H4.94182V12.4765H4.77239V12.31H4.19067V12.4765ZM4.34316 11.9556C4.33751 12.0576 4.31492 12.122 4.28668 12.1596V12.165H4.64814V11.6118H4.36575L4.34316 11.9556Z" fill="#5E6064"/>
<path d="M5.04346 12.0469V11.8965H5.45009V12.0469H5.04346Z" fill="#5E6064"/>
<path d="M6.20113 11.7407H6.19548L5.7945 12.31H5.61377V11.4668H5.80014V12.0415H5.80579L6.20678 11.4668H6.38751V12.31H6.20113V11.7407Z" fill="#5E6064"/>
<path d="M6.74913 11.811H6.86774C6.91292 11.811 6.94681 11.8003 6.97504 11.7788C7.00328 11.7573 7.01458 11.7305 7.01458 11.6929C7.01458 11.6606 7.00328 11.6284 6.97504 11.6123C6.94681 11.5908 6.91292 11.5801 6.86774 11.5801C6.82256 11.5801 6.78302 11.5908 6.75478 11.6123C6.72654 11.6338 6.7096 11.666 6.7096 11.6982H6.54017C6.54582 11.6177 6.57406 11.5532 6.63618 11.5103C6.69831 11.4619 6.77737 11.4404 6.87338 11.4404C6.9694 11.4404 7.04282 11.4619 7.10494 11.5049C7.16142 11.5478 7.1953 11.6016 7.1953 11.6714C7.1953 11.7197 7.17836 11.7627 7.15012 11.7949C7.12188 11.8271 7.0767 11.854 7.03152 11.8647V11.8701C7.09365 11.8755 7.13883 11.897 7.17271 11.9346C7.2066 11.9722 7.22354 12.0205 7.22354 12.0742C7.22354 12.1494 7.18966 12.2085 7.12188 12.2568C7.05411 12.3051 6.9694 12.3266 6.86774 12.3266C6.76608 12.3266 6.68136 12.3051 6.61924 12.2568C6.55711 12.2085 6.52323 12.144 6.51758 12.0688H6.69831C6.70395 12.1064 6.7209 12.1333 6.74913 12.1548C6.78302 12.1762 6.82255 12.187 6.87338 12.187C6.91857 12.187 6.9581 12.1762 6.98634 12.1548C7.01458 12.1333 7.03152 12.1011 7.03152 12.0635C7.03152 12.0259 7.01458 11.999 6.98634 11.9775C6.9581 11.956 6.91857 11.9453 6.86774 11.9453H6.74913V11.811Z" fill="#5E6064"/>
<path d="M7.35352 12.31V11.4668H7.92394V11.6118H7.53989V12.31H7.35352Z" fill="#5E6064"/>
<path d="M8.71443 11.5693C8.7935 11.6499 8.82738 11.7519 8.82738 11.8916C8.82738 12.0259 8.78785 12.1333 8.71443 12.2085C8.63536 12.289 8.5337 12.3266 8.4038 12.3266C8.27391 12.3266 8.1666 12.289 8.09318 12.2085C8.01411 12.1279 7.98022 12.0259 7.98022 11.8916C7.98022 11.7573 8.01976 11.6499 8.09318 11.5693C8.17225 11.4888 8.27391 11.4512 8.4038 11.4512C8.5337 11.4512 8.64101 11.4941 8.71443 11.5693ZM8.22872 11.6768C8.18354 11.7305 8.16095 11.8003 8.16095 11.8862C8.16095 11.9722 8.18354 12.0473 8.22308 12.0957C8.26826 12.1494 8.32474 12.1762 8.39816 12.1762C8.47158 12.1762 8.52805 12.1494 8.57324 12.0957C8.61842 12.042 8.63536 11.9722 8.63536 11.8862C8.63536 11.8003 8.61277 11.7251 8.57324 11.6768C8.52805 11.623 8.47158 11.5962 8.39816 11.5962C8.32474 11.5962 8.27391 11.6284 8.22872 11.6768Z" fill="#5E6064"/>
<path d="M9.13821 12.31V11.6118H8.87842V11.4668H9.58438V11.6118H9.32459V12.31H9.13821Z" fill="#5E6064"/>
<path d="M10.3692 11.5693C10.4483 11.6499 10.4822 11.7519 10.4822 11.8916C10.4822 12.0259 10.4426 12.1333 10.3692 12.2085C10.2901 12.289 10.1885 12.3266 10.0586 12.3266C9.92869 12.3266 9.82138 12.289 9.74796 12.2085C9.6689 12.1279 9.63501 12.0259 9.63501 11.8916C9.63501 11.7573 9.67454 11.6499 9.74796 11.5693C9.82703 11.4888 9.92869 11.4512 10.0586 11.4512C10.1885 11.4512 10.2958 11.4941 10.3692 11.5693ZM9.88351 11.6768C9.83833 11.7305 9.81574 11.8003 9.81574 11.8862C9.81574 11.9722 9.83833 12.0473 9.87786 12.0957C9.92304 12.1494 9.97952 12.1762 10.0529 12.1762C10.1264 12.1762 10.1828 12.1494 10.228 12.0957C10.2732 12.042 10.2901 11.9722 10.2901 11.8862C10.2901 11.8003 10.2676 11.7251 10.228 11.6768C10.1828 11.623 10.1264 11.5962 10.0529 11.5962C9.98517 11.6016 9.92869 11.6284 9.88351 11.6768Z" fill="#5E6064"/>
<path d="M10.6235 12.31V11.4668H11.0132C11.0979 11.4668 11.1601 11.4883 11.2109 11.5259C11.2617 11.5635 11.2843 11.6172 11.2843 11.6816C11.2843 11.73 11.2674 11.7676 11.2335 11.8052C11.1996 11.8374 11.1601 11.8589 11.1149 11.8696V11.875C11.177 11.8804 11.2278 11.9018 11.2674 11.9394C11.3069 11.977 11.3239 12.0254 11.3239 12.0791C11.3239 12.1543 11.2956 12.2134 11.2391 12.2563C11.1827 12.2993 11.1092 12.3208 11.0132 12.3208H10.6235V12.31ZM10.8099 11.8159H10.9511C11.0019 11.8159 11.0415 11.8052 11.0641 11.7837C11.0923 11.7622 11.1036 11.7353 11.1036 11.7031C11.1036 11.6709 11.0923 11.644 11.0697 11.6226C11.0471 11.6064 11.0132 11.5957 10.968 11.5957H10.8099V11.8159ZM10.9737 12.1811C11.081 12.1811 11.1375 12.1382 11.1375 12.0576C11.1375 11.977 11.081 11.9341 10.968 11.9341H10.8043V12.1811H10.9737Z" fill="#5E6064"/>
<path d="M12.0522 11.7407H12.0466L11.6456 12.31H11.4648V11.4668H11.6512V12.0415H11.6569L12.0579 11.4668H12.2386V12.31H12.0522V11.7407Z" fill="#5E6064"/>
<path d="M12.617 12.31V11.6118H12.3572V11.4668H13.0631V11.6118H12.8033V12.31H12.617Z" fill="#5E6064"/>
<path d="M13.7805 12.31H13.1931V11.4668H13.7805V11.6118H13.3795V11.8159H13.7579V11.9502H13.3795V12.165H13.7805V12.31Z" fill="#5E6064"/>
<path d="M14.492 12.31V11.6118H14.2322L14.2096 11.977C14.204 12.0898 14.1814 12.1758 14.1419 12.2295C14.0967 12.2885 14.0346 12.3208 13.9499 12.3208C13.9216 12.3208 13.899 12.3154 13.8821 12.31V12.1543C13.899 12.1596 13.9103 12.1596 13.9216 12.1596C13.9611 12.1596 13.9894 12.1435 14.0063 12.1113C14.0233 12.0791 14.0346 12.0307 14.0346 11.9663L14.0628 11.4668H14.6728V12.31H14.492Z" fill="#5E6064"/>
<path d="M14.8479 11.4668H15.0343V11.7515H15.2094C15.3054 11.7515 15.3788 11.7783 15.4409 11.8266C15.4974 11.8804 15.5313 11.9448 15.5313 12.0307C15.5313 12.1167 15.503 12.1811 15.4466 12.2348C15.3901 12.2885 15.3167 12.31 15.2263 12.31H14.8592V11.4668H14.8479ZM15.1698 12.1704C15.2207 12.1704 15.2658 12.1596 15.2941 12.1328C15.3223 12.1059 15.3393 12.0737 15.3393 12.0307C15.3393 11.9878 15.3223 11.9502 15.2941 11.9233C15.2658 11.8965 15.2263 11.8857 15.1698 11.8857H15.0399V12.165H15.1698V12.1704Z" fill="#5E6064"/>
</g>
<defs>
<clipPath id="clip0_1217_81">
<rect width="16" height="16" fill="white"/>
</clipPath>
</defs>
</svg>
