<svg width="1180" height="1299" viewBox="0 0 1180 1299" fill="none" xmlns="http://www.w3.org/2000/svg">
<g clip-path="url(#clip0_1155_902)">
<path d="M768.057 735.721C764.152 735.721 760.476 735.721 756.57 735.721C751.975 735.721 748.758 733.195 747.38 728.832C740.257 707.707 733.135 686.352 726.243 664.996C724.175 658.567 720.269 654.893 713.836 653.515C703.268 651.448 692.929 648.923 682.36 646.626C676.846 645.249 672.481 646.626 668.575 650.53C653.182 666.145 638.018 681.529 622.625 697.144C621.936 697.833 621.017 698.751 620.328 699.44C615.962 703.574 612.516 704.033 607.232 701.048C590.46 691.633 573.458 681.989 556.687 672.574C550.943 669.359 549.564 666.145 551.173 659.715C556.916 637.441 562.43 615.168 568.174 593.123C569.323 588.531 568.404 584.398 564.958 580.953C556.687 572.228 548.416 563.731 539.915 555.006C536.239 551.332 532.103 550.183 527.049 551.332C505.222 556.383 483.396 561.205 461.57 566.028C453.988 567.635 451.461 566.257 448.014 559.598C439.514 542.835 430.783 526.073 422.282 509.54C421.823 508.391 421.134 507.473 420.674 506.325C419.296 502.88 419.525 499.436 422.282 496.681C425.039 493.925 427.796 491.17 430.783 488.644C445.257 475.325 459.502 461.777 473.976 448.459C478.112 444.785 479.72 440.422 478.801 434.911C476.733 423.889 474.895 412.867 472.598 401.845C471.679 397.482 469.152 394.727 465.016 393.119C448.474 387.149 432.162 381.179 415.62 374.979C408.957 372.453 402.294 369.927 395.631 367.631C393.334 366.942 392.645 365.794 392.645 363.268C393.334 343.979 395.861 324.691 398.159 305.402C398.388 302.876 398.848 300.121 399.307 297.595C399.997 291.625 402.754 288.639 408.727 287.721C419.296 285.884 429.634 284.047 440.203 281.98C452.61 279.684 464.786 277.388 477.193 275.321C482.477 274.403 485.923 271.417 487.991 266.366C491.437 257.87 494.884 249.603 498.33 241.336C500.627 236.055 499.938 231.463 496.262 226.64C482.937 209.418 469.841 191.967 456.745 174.745C451.231 167.397 451.231 165.33 457.205 157.982C468.922 143.516 480.639 128.82 492.356 114.353C493.735 112.516 495.113 110.909 496.722 109.301C499.938 106.087 503.384 105.168 507.75 107.005C520.156 112.287 532.563 117.338 545.199 122.62C555.078 126.753 565.187 130.886 575.067 135.02C578.513 136.397 582.189 135.938 585.405 133.871C592.298 129.049 599.19 124.227 606.083 119.405C609.989 116.65 611.827 112.975 611.367 108.153C609.529 84.9611 607.691 61.9985 605.853 38.8063C605.394 33.9842 607.691 30.0805 612.516 28.4731C628.139 23.1917 643.762 17.9103 659.155 12.8586C664.899 11.0215 670.413 8.95491 676.157 7.1179C680.982 5.74015 684.658 6.88828 687.415 10.7919C697.064 24.5695 706.484 38.347 716.134 52.1246C720.499 58.3245 724.864 64.754 729.229 70.7243C731.757 73.9391 735.203 75.3168 739.338 75.0872C747.15 74.8576 754.962 74.3983 762.773 74.1687C765.76 74.1687 767.368 72.3317 768.747 70.0354C771.963 64.5244 774.95 58.7838 778.166 53.2727C786.897 37.1989 795.398 21.3547 804.128 5.28089C806.426 0.918 810.102 -0.459753 814.697 0.458751C836.293 5.74015 857.66 11.0215 879.257 15.8437C886.609 17.4511 888.676 21.3547 888.676 27.325C889.366 47.5321 890.055 67.5095 890.744 87.7166C890.744 90.9314 890.974 94.1462 891.204 97.1313C891.434 101.494 893.501 104.709 896.948 107.005C902.691 110.45 908.665 113.894 914.638 117.109C918.314 118.946 922.22 118.716 925.896 116.65C942.438 107.464 958.98 98.2794 975.522 89.0944C979.658 86.7981 984.023 84.5019 988.159 82.2056C992.754 79.9093 995.511 80.139 999.187 83.5834C1007 91.161 1014.35 98.9683 1021.93 106.546C1029.05 113.894 1036.18 121.242 1043.3 128.59C1044.22 129.509 1045.14 130.427 1046.29 131.346C1051.11 135.479 1052.03 140.071 1048.81 145.582C1044.22 153.16 1039.62 160.738 1035.03 168.315C1027.68 180.715 1020.32 193.115 1012.97 205.515C1010.67 209.648 1010.67 213.781 1012.74 217.685C1015.96 223.655 1019.17 229.855 1022.39 235.596C1024.46 239.04 1027.68 241.107 1031.81 241.336C1043.07 242.255 1054.56 242.714 1065.81 243.633C1078.91 244.551 1092.01 245.47 1105.33 246.388C1109.24 246.618 1112.22 249.603 1113.14 253.736C1117.97 275.551 1122.56 297.136 1127.16 318.95C1128.54 325.15 1126.93 328.365 1121.41 331.12C1109.93 336.861 1098.67 342.601 1087.18 348.342C1078.22 352.705 1069.49 357.298 1060.53 361.66C1055.48 364.186 1052.72 367.86 1052.49 373.601C1052.26 380.719 1051.8 387.608 1051.34 394.727C1050.88 400.008 1052.95 404.141 1057.31 407.356C1075.69 420.904 1094.07 434.452 1112.45 448C1112.91 448.229 1113.37 448.689 1113.83 448.918C1118.43 452.363 1119.35 456.037 1117.51 461.548C1113.14 473.259 1108.78 485.199 1104.64 496.91C1101.66 505.177 1098.67 513.673 1095.45 521.939C1093.61 526.991 1089.94 529.058 1084.42 528.599C1065.81 526.532 1047.2 524.695 1028.59 522.628C1024.46 522.169 1020.32 521.71 1015.96 521.251C1011.13 520.562 1007.46 522.628 1004.7 526.073C999.187 533.421 993.902 540.769 988.388 548.117C985.402 552.25 984.483 556.613 986.55 561.435C994.821 582.79 1002.86 604.375 1011.13 625.96C1013.66 632.849 1012.74 636.293 1006.77 640.656C992.983 650.989 979.428 661.322 965.873 671.656C963.346 673.493 960.818 675.33 958.521 677.167C954.385 680.152 950.939 680.381 946.803 677.167C938.762 670.967 930.951 664.537 923.139 658.108C913.26 650.3 903.381 642.263 893.731 634.456C889.136 630.552 884.311 629.864 878.797 632.16C869.607 636.064 860.187 639.278 850.768 642.952C845.713 645.019 842.497 648.693 841.348 653.974C837.442 673.033 833.307 692.092 829.401 711.381C828.712 715.055 827.793 718.729 826.874 722.633C825.955 727.225 822.968 729.751 818.373 730.21C801.601 732.047 784.829 733.425 767.828 735.262C768.057 735.951 768.057 735.721 768.057 735.721ZM763.692 152.242C647.208 150.864 547.726 243.403 546.118 364.875C544.51 482.673 638.018 580.953 758.178 582.79C875.351 584.627 972.076 491.858 976.212 374.979C980.347 253.277 883.622 153.849 763.692 152.242Z" fill="#FAFAFA"/>
<path d="M320.043 1068.91C317.286 1068.91 314.299 1068.91 311.542 1068.91C308.096 1068.91 305.798 1067.07 304.649 1063.86C299.365 1048.01 294.081 1032.4 289.026 1016.55C287.418 1011.73 284.661 1008.98 279.836 1008.06C272.025 1006.45 264.213 1004.61 256.632 1002.78C252.496 1001.86 249.28 1002.78 246.293 1005.76C235.035 1017.24 223.547 1028.72 212.29 1040.43C211.6 1041.12 211.141 1041.58 210.452 1042.27C207.235 1045.26 204.708 1045.72 200.802 1043.42C188.396 1036.3 175.759 1029.41 163.353 1022.29C159.217 1020 158.068 1017.47 159.217 1012.65C163.353 996.117 167.718 979.584 171.854 963.28C172.773 959.836 171.854 956.851 169.556 954.325C163.353 947.895 157.149 941.466 151.176 935.036C148.419 932.281 145.432 931.362 141.756 932.281C125.674 935.955 109.361 939.629 93.049 943.303C87.535 944.451 85.4672 943.532 82.9399 938.48C76.5069 926.081 70.0739 913.681 63.8706 901.281C63.4111 900.592 62.9516 899.674 62.7219 898.985C61.8029 896.459 61.8029 893.933 63.8706 891.866C65.9384 889.8 68.0061 887.733 70.0739 885.896C80.6424 876.022 91.4407 865.919 102.239 856.045C105.226 853.289 106.604 850.074 105.685 845.941C104.077 837.904 102.699 829.638 101.09 821.371C100.401 818.156 98.563 816.09 95.3465 814.942C83.1697 810.579 70.9929 805.986 58.5864 801.623C53.7616 799.786 48.7071 797.949 43.8823 796.112C42.2741 795.653 41.5848 794.735 41.8146 792.898C42.2741 778.431 44.1121 764.194 45.9501 749.958C46.1798 748.121 46.6393 746.054 46.8691 744.217C47.3286 739.624 49.3963 737.558 53.7616 736.869C61.5731 735.491 69.3847 734.113 76.9664 732.736C86.1565 731.128 95.3465 729.291 104.537 727.684C108.442 726.995 111.199 724.699 112.578 721.025C115.105 714.825 117.632 708.625 120.389 702.425C121.998 698.521 121.538 695.077 119.011 691.633C109.132 678.773 99.482 665.914 89.8325 653.055C85.697 647.544 85.697 646.167 90.0622 640.656C98.7928 629.863 107.523 619.071 116.024 608.278C116.943 606.9 118.092 605.752 119.241 604.604C121.538 602.308 124.295 601.619 127.512 602.997C136.702 606.901 145.892 610.575 155.311 614.478C162.663 617.463 170.015 620.678 177.597 623.663C180.125 624.811 182.882 624.352 185.179 622.745C190.234 619.3 195.518 615.626 200.572 611.952C203.329 609.886 204.938 607.13 204.478 603.686C203.1 586.464 201.721 569.471 200.343 552.25C200.113 548.805 201.721 545.82 205.167 544.672C216.655 540.768 228.372 536.865 239.86 532.961C243.995 531.583 248.131 529.976 252.496 528.828C255.942 527.679 258.699 528.598 260.767 531.583C267.889 541.687 275.012 552.02 282.134 562.123C285.35 566.716 288.567 571.308 292.013 575.901C293.851 578.427 296.378 579.345 299.365 579.116C305.109 578.886 310.853 578.656 316.596 578.427C318.664 578.427 320.043 577.049 320.962 575.442C323.259 571.308 325.557 567.175 327.854 562.812C334.287 550.872 340.72 539.161 347.153 527.22C348.991 524.006 351.748 522.857 354.965 523.776C371.047 527.68 386.9 531.583 402.983 535.257C408.267 536.405 409.875 539.39 410.105 543.753C410.565 558.679 411.024 573.605 411.713 588.53C411.713 590.827 411.943 593.123 412.173 595.649C412.403 598.864 413.781 601.389 416.538 602.997C420.903 605.523 425.269 608.049 429.634 610.575C432.391 611.952 435.148 611.723 437.905 610.345C450.311 603.456 462.488 596.567 474.895 589.908C478.111 588.071 481.098 586.464 484.315 584.856C487.761 583.019 489.829 583.249 492.586 586.005C498.329 591.516 503.843 597.256 509.587 602.997C514.871 608.508 520.156 613.789 525.44 619.3C526.129 619.989 526.818 620.678 527.737 621.367C531.184 624.352 531.873 627.796 529.575 631.93C526.129 637.67 522.683 643.181 519.466 648.922C513.952 658.107 508.438 667.292 503.154 676.477C501.316 679.462 501.316 682.447 502.924 685.662C505.222 690.025 507.749 694.618 510.047 698.981C511.425 701.506 513.952 703.114 516.939 703.343C525.44 704.032 533.711 704.492 542.212 704.951C551.861 705.64 561.741 706.329 571.39 707.017C574.147 707.247 576.674 709.543 577.134 712.299C580.58 728.373 584.026 744.447 587.702 760.52C588.621 765.113 587.702 767.409 583.337 769.705C574.836 774.068 566.336 778.201 557.835 782.564C551.172 785.779 544.739 789.224 538.076 792.438C534.4 794.275 532.332 797.031 532.103 801.394C531.873 806.675 531.413 811.956 531.184 817.008C530.954 820.912 532.332 824.127 535.549 826.423C549.334 836.526 562.889 846.63 576.445 856.734C576.674 856.963 577.134 857.193 577.364 857.422C580.81 859.948 581.499 862.704 580.121 866.837C576.904 875.563 573.688 884.289 570.471 893.014C568.174 899.214 565.876 905.414 563.579 911.614C562.2 915.518 559.443 916.896 555.537 916.436C541.752 915.059 527.967 913.451 514.182 912.073C510.966 911.844 507.979 911.385 504.992 910.925C501.546 910.466 498.789 911.844 496.721 914.599C492.586 919.881 488.68 925.392 484.544 930.903C482.247 933.888 481.787 937.103 483.166 940.777C489.369 956.621 495.343 972.695 501.316 988.539C503.384 993.591 502.465 996.117 498.1 999.561C487.991 1007.14 477.882 1014.95 467.773 1022.52C465.935 1023.9 464.096 1025.28 462.258 1026.66C459.272 1028.95 456.515 1029.18 453.528 1026.66C447.554 1022.06 441.811 1017.24 435.837 1012.42C428.485 1006.45 421.133 1000.71 414.011 994.739C410.565 991.983 407.118 991.294 402.753 993.131C395.861 995.887 388.968 998.413 382.075 1001.17C378.17 1002.55 375.872 1005.3 375.183 1009.43C372.196 1023.67 369.209 1037.68 366.223 1051.92C365.533 1054.67 365.074 1057.43 364.385 1060.18C363.695 1063.63 361.398 1065.46 358.181 1065.69C345.775 1067.07 333.139 1068.22 320.732 1069.37C320.043 1069.14 320.043 1069.14 320.043 1068.91ZM316.596 636.293C230.21 635.374 156.46 703.803 155.311 794.046C154.163 881.304 223.318 954.325 312.691 955.702C399.537 957.08 471.449 888.192 474.435 801.623C477.422 711.151 405.74 637.441 316.596 636.293Z" fill="#FAFAFA"/>
<path d="M699.59 1298.53C697.523 1298.53 695.225 1298.53 693.157 1298.53C690.63 1298.53 688.792 1297.16 687.873 1294.63C683.967 1282.69 679.832 1270.52 675.926 1258.58C674.777 1254.91 672.71 1252.84 668.804 1252.15C662.83 1251 656.857 1249.62 651.113 1248.25C648.126 1247.56 645.369 1248.25 643.302 1250.54C634.571 1259.27 626.07 1268.22 617.34 1276.95C616.88 1277.41 616.421 1277.87 615.961 1278.33C613.434 1280.62 611.596 1280.85 608.609 1279.25C598.96 1273.96 589.54 1268.45 579.89 1263.17C576.674 1261.34 575.985 1259.5 576.904 1255.82C580.12 1243.19 583.337 1230.79 586.553 1218.17C587.242 1215.64 586.553 1213.34 584.715 1211.28C580.12 1206.45 575.295 1201.4 570.7 1196.58C568.633 1194.51 566.335 1193.83 563.578 1194.51C551.171 1197.27 538.765 1200.02 526.588 1202.78C522.453 1203.7 520.844 1203.01 518.777 1199.11C513.952 1189.69 509.127 1180.28 504.073 1170.63C503.843 1169.94 503.383 1169.48 503.154 1168.8C502.464 1166.73 502.464 1164.89 504.073 1163.28C505.681 1161.68 507.289 1160.3 508.897 1158.69C516.939 1151.11 525.21 1143.54 533.251 1135.96C535.548 1133.89 536.467 1131.37 536.008 1128.15C534.859 1121.95 533.71 1115.75 532.562 1109.55C532.102 1107.03 530.494 1105.42 528.196 1104.73C518.777 1101.29 509.587 1097.84 500.167 1094.63C496.491 1093.25 492.585 1091.87 488.909 1090.49C487.76 1090.03 487.301 1089.57 487.301 1087.97C487.531 1076.95 489.139 1066.15 490.517 1055.36C490.747 1053.98 490.977 1052.38 491.207 1051C491.666 1047.55 493.045 1045.95 496.491 1045.26C502.464 1044.11 508.438 1043.19 514.182 1042.04C521.074 1040.66 528.196 1039.52 535.089 1038.14C538.076 1037.68 540.143 1035.84 541.292 1033.09C543.13 1028.26 545.198 1023.67 547.266 1018.85C548.644 1015.86 548.185 1013.11 546.117 1010.58C538.535 1000.94 531.183 991.065 523.831 981.191C520.615 977.058 520.615 975.91 524.061 971.777C530.724 963.51 537.386 955.244 543.819 947.207C544.509 946.288 545.428 945.14 546.347 944.451C548.185 942.614 550.252 942.155 552.55 943.073C559.672 946.059 566.565 949.044 573.687 951.799C579.431 954.095 584.945 956.392 590.689 958.688C592.756 959.606 594.594 959.147 596.432 957.999C600.338 955.244 604.244 952.488 608.15 949.733C610.217 948.125 611.366 946.059 611.136 943.303C609.988 930.214 609.069 917.126 607.92 904.037C607.69 901.282 609.069 898.985 611.596 898.067C620.326 895.082 629.287 892.096 638.017 889.111C641.234 887.963 644.45 886.815 647.667 885.897C650.424 884.978 652.492 885.667 654.1 887.963C659.614 895.77 664.898 903.578 670.412 911.385C672.939 914.829 675.237 918.503 677.764 921.948C679.143 923.785 681.21 924.474 683.508 924.474C687.873 924.244 692.238 924.014 696.604 924.014C698.212 924.014 699.361 922.866 700.05 921.718C701.888 918.503 703.496 915.289 705.334 912.074C710.159 903.119 715.214 893.933 720.038 884.978C721.417 882.452 723.485 881.763 726.012 882.223C738.189 885.208 750.365 888.193 762.542 890.948C766.678 891.867 767.826 894.163 767.826 897.607C768.286 909.089 768.516 920.34 768.975 931.822C768.975 933.659 769.205 935.496 769.205 937.103C769.435 939.629 770.584 941.466 772.422 942.614C775.638 944.681 779.084 946.518 782.531 948.355C784.598 949.503 786.896 949.273 788.964 948.125C798.383 942.844 807.803 937.792 816.993 932.511C819.291 931.133 821.818 929.755 824.115 928.607C826.643 927.229 828.251 927.459 830.319 929.525C834.684 933.888 839.049 938.251 843.185 942.614C847.32 946.747 851.226 950.881 855.361 955.014C855.821 955.473 856.51 956.162 856.97 956.621C859.727 958.918 860.186 961.673 858.348 964.658C855.821 969.021 853.064 973.154 850.537 977.517C846.401 984.636 842.266 991.524 838.13 998.643C836.752 1000.94 836.752 1003.24 838.13 1005.53C839.968 1008.98 841.806 1012.42 843.644 1015.64C844.793 1017.7 846.631 1018.85 848.928 1018.85C855.362 1019.31 861.795 1019.77 868.228 1020C875.58 1020.46 883.161 1021.15 890.513 1021.61C892.581 1021.84 894.419 1023.44 894.879 1025.74C897.636 1037.91 900.163 1050.31 902.92 1062.48C903.609 1065.92 902.92 1067.76 899.703 1069.37C893.27 1072.58 886.837 1075.8 880.404 1079.01C875.35 1081.54 870.295 1084.06 865.241 1086.59C862.484 1087.97 860.876 1090.03 860.646 1093.48C860.416 1097.38 860.186 1101.52 859.956 1105.42C859.727 1108.4 860.876 1110.7 863.403 1112.54C873.742 1120.12 884.31 1127.92 894.649 1135.5C894.879 1135.73 895.108 1135.96 895.338 1135.96C897.865 1138.03 898.555 1140.09 897.406 1143.08C894.879 1149.74 892.581 1156.4 890.054 1163.06C888.216 1167.88 886.608 1172.47 884.77 1177.29C883.621 1180.28 881.553 1181.43 878.566 1180.97C867.998 1179.82 857.429 1178.67 846.861 1177.52C844.563 1177.29 842.036 1177.06 839.738 1176.6C836.981 1176.37 834.914 1177.29 833.305 1179.36C830.089 1183.49 827.102 1187.63 824.115 1191.76C822.277 1194.05 822.048 1196.58 822.967 1199.34C827.562 1211.51 832.157 1223.68 836.752 1235.85C838.13 1239.75 837.671 1241.59 834.224 1244.11C826.413 1249.85 818.831 1255.82 811.02 1261.79C809.641 1262.94 808.263 1263.86 806.884 1265.01C804.587 1266.85 802.519 1266.85 800.221 1265.01C795.626 1261.56 791.261 1257.89 786.896 1254.22C781.382 1249.62 775.638 1245.26 770.124 1240.67C767.597 1238.6 764.84 1238.14 761.623 1239.29C756.339 1241.36 751.055 1243.42 745.77 1245.26C742.784 1246.41 741.175 1248.48 740.486 1251.46C738.189 1262.25 735.891 1273.05 733.823 1283.84C733.364 1285.91 732.904 1287.97 732.445 1290.04C731.985 1292.56 730.147 1293.94 727.62 1294.4C718.2 1295.32 708.551 1296.24 699.131 1297.16C699.59 1298.53 699.59 1298.53 699.59 1298.53ZM697.063 968.332C631.125 967.643 574.836 1020 573.917 1088.66C572.998 1155.25 625.84 1210.82 693.847 1211.97C760.015 1212.88 814.925 1160.53 817.223 1094.4C819.75 1025.51 765.069 969.251 697.063 968.332Z" fill="#FAFAFA"/>
</g>
<defs>
<clipPath id="clip0_1155_902">
<rect width="1180" height="1299" fill="white"/>
</clipPath>
</defs>
</svg>
